<svg xmlns="http://www.w3.org/2000/svg" width="149.615" height="44" viewBox="0 0 149.615 44">
  <g id="Group_559" data-name="Group 559" transform="translate(-424.015 -1098)">
    <g id="Group_2" data-name="Group 2" transform="translate(424.015 1109.19)">
      <g id="Group_1" data-name="Group 1" transform="translate(0)">
        <path id="Path_1" data-name="Path 1" d="M3645.583-2066.08c-2.537-2.249-3.971-4.809-3.461-8.174.626-4.133,3.276-6.891,7.422-6.955,9.474-.146,18.951-.031,28.427-.016a1.833,1.833,0,0,1,.456.173v5.425h-14.25v5.054h8.44v5.743h-8.531v10.479h-7.47c-1.68,0-3.359.007-5.039,0a7.224,7.224,0,0,1-6.621-10.49C3645.133-2065.217,3645.331-2065.583,3645.583-2066.08Zm12.473-10.332c-2.932,0-5.732-.12-8.516.042-1.9.11-1.8,1.829-1.842,3.153-.044,1.458.093,3.1,2.041,3.2,2.727.14,5.465.035,8.317.035Zm0,17.081v-4.852c-2.5,0-4.877-.066-7.253.022-1.674.062-1.491,1.432-1.485,2.552.007,1.092,0,2.271,1.592,2.276C3653.241-2059.326,3655.566-2059.331,3658.06-2059.331Z" transform="translate(-3642.019 2081.282)" fill="#83899b"/>
      </g>
    </g>
    <text id="BeFixx_" data-name="BeFixx " transform="translate(473.631 1134)" fill="#83899b" font-size="33" font-family="SegoeUI, Segoe UI"><tspan x="0" y="0">BeFixx </tspan></text>
  </g>
</svg>
