<svg id="Group_316" data-name="Group 316" xmlns="http://www.w3.org/2000/svg" width="178.032" height="156.864" viewBox="0 0 178.032 156.864">
  <g id="Group_282" data-name="Group 282" transform="translate(46.091 13.46)">
    <g id="Group_279" data-name="Group 279" transform="translate(1.459 6.26)">
      <g id="Group_278" data-name="Group 278">
        <path id="Path_732" data-name="Path 732" d="M3065.412,1531.9q-.179,4.434-.359,8.87-.664,16.059-1.329,32.119a4.986,4.986,0,0,0-.015.566,2.306,2.306,0,0,1-1.2,2.364,6.061,6.061,0,0,0-2.236,6.937,5.728,5.728,0,0,0,5.851,4.137,5.856,5.856,0,0,0,5.183-4.777,6.157,6.157,0,0,0-2.857-6.626,1.335,1.335,0,0,1-.739-1.312q-.626-15.78-1.279-31.557-.2-4.924-.414-9.846a3.187,3.187,0,0,1,.07-.892c.355,1.469.668,2.952,1.073,4.406a71.687,71.687,0,0,0,26.017,38.807c1.249.957,2.54,1.859,3.854,2.717.532.347.566.644.343,1.219q-6.769,17.418-13.506,34.852c-.906,2.337-1.819,4.673-2.708,7.019a.766.766,0,0,1-.833.6q-14.626-.02-29.257,0a.763.763,0,0,1-.831-.6q-8.1-20.983-16.233-41.95a.782.782,0,0,1,.38-1.139,70.124,70.124,0,0,0,19.2-18.661,72.037,72.037,0,0,0,11.54-26.632c.044-.207.1-.41.155-.615Z" transform="translate(-3033.901 -1531.884)" fill="#4965ae"/>
      </g>
    </g>
    <g id="Group_281" data-name="Group 281">
      <g id="Group_280" data-name="Group 280">
        <path id="Path_733" data-name="Path 733" d="M3081.022,1626.024h0q-14.624-.023-29.251,0h0a2.211,2.211,0,0,1-2.179-1.563q-8.1-20.977-16.231-41.944a2.34,2.34,0,0,1,.958-3.053,68.975,68.975,0,0,0,18.8-18.266,70.77,70.77,0,0,0,11.289-26.045c.034-.169.08-.34.125-.513l.313-1.226.8-.068,1.139-4.758,1.419,5.872c.111.467.22.936.328,1.4.228.976.462,1.986.729,2.949a70.474,70.474,0,0,0,25.468,37.987c1.162.891,2.394,1.758,3.767,2.655a2.379,2.379,0,0,1,.928,3.14q-5.462,14.055-10.9,28.124l-3.326,8.589c-.667,1.712-1.331,3.425-1.98,5.143A2.215,2.215,0,0,1,3081.022,1626.024Zm-14.894-3.119q7.262,0,14.515.011c.613-1.614,1.232-3.207,1.849-4.8l3.326-8.586q5.363-13.852,10.735-27.7c-1.292-.858-2.442-1.675-3.534-2.51a72.927,72.927,0,0,1-24.4-32.967l.047,1.131q.6,14.792,1.2,29.588v.022a7.827,7.827,0,0,1,3.556,8.337,7.31,7.31,0,0,1-6.539,5.973,7.165,7.165,0,0,1-7.3-5.2,7.622,7.622,0,0,1,2.867-8.76c.507-.325.522-.471.491-.929a4.957,4.957,0,0,1,.01-.605l.036-.826,1.183-28.639a74.778,74.778,0,0,1-8.718,16.594,71.9,71.9,0,0,1-19.208,18.794q7.982,20.565,15.893,41.074Q3059.14,1622.906,3066.128,1622.905Zm.261-59.578-.529,12.791a1.654,1.654,0,0,0-.008.2,3.846,3.846,0,0,1-1.9,3.8,4.436,4.436,0,0,0-1.606,5.111,4.235,4.235,0,0,0,4.406,3.078,4.387,4.387,0,0,0,3.825-3.581,4.564,4.564,0,0,0-2.115-4.895,2.9,2.9,0,0,1-1.517-2.62Q3066.675,1570.267,3066.39,1563.327Z" transform="translate(-3033.133 -1528.587)" fill="#00173f"/>
      </g>
    </g>
  </g>
  <g id="Group_287" data-name="Group 287" transform="translate(60.707 111.074)">
    <g id="Group_284" data-name="Group 284" transform="translate(1.456 1.553)">
      <g id="Group_283" data-name="Group 283">
        <path id="Path_734" data-name="Path 734" d="M3075.991,1580.819v9.411H3041.6v-9.411Z" transform="translate(-3041.598 -1580.819)" fill="#fff"/>
      </g>
    </g>
    <g id="Group_286" data-name="Group 286">
      <g id="Group_285" data-name="Group 285">
        <path id="Path_735" data-name="Path 735" d="M3078.138,1592.518h-37.307V1580h37.307Zm-34.393-3.108h31.477v-6.3h-31.477Z" transform="translate(-3040.831 -1580.001)" fill="#00173f"/>
      </g>
    </g>
  </g>
  <g id="Group_290" data-name="Group 290" transform="translate(12.946 5.932)">
    <g id="Group_289" data-name="Group 289">
      <g id="Group_288" data-name="Group 288">
        <path id="Path_736" data-name="Path 736" d="M3147.033,1596.96a1.508,1.508,0,0,1-1.458-1.553c0-37.317-28.482-67.677-63.492-67.677s-63.493,30.36-63.493,67.677a1.46,1.46,0,1,1-2.914,0c0-39.031,29.791-70.785,66.407-70.785s66.406,31.754,66.406,70.785A1.507,1.507,0,0,1,3147.033,1596.96Z" transform="translate(-3015.675 -1524.622)" fill="#002577"/>
      </g>
    </g>
  </g>
  <g id="Group_293" data-name="Group 293" transform="translate(145.863)">
    <g id="Group_292" data-name="Group 292">
      <g id="Group_291" data-name="Group 291">
        <ellipse id="Ellipse_15" data-name="Ellipse 15" cx="6.422" cy="6.845" rx="6.422" ry="6.845" fill="#002577"/>
      </g>
    </g>
  </g>
  <g id="Group_296" data-name="Group 296">
    <g id="Group_295" data-name="Group 295">
      <g id="Group_294" data-name="Group 294">
        <ellipse id="Ellipse_16" data-name="Ellipse 16" cx="6.422" cy="6.845" rx="6.422" ry="6.845" fill="#002577"/>
      </g>
    </g>
  </g>
  <g id="Group_299" data-name="Group 299" transform="translate(7.498 5.292)">
    <g id="Group_298" data-name="Group 298">
      <g id="Group_297" data-name="Group 297">
        <path id="Path_737" data-name="Path 737" d="M3155.055,1527.391H3014.264a1.556,1.556,0,0,1,0-3.106h140.792a1.556,1.556,0,0,1,0,3.106Z" transform="translate(-3012.805 -1524.285)" fill="#002577"/>
      </g>
    </g>
  </g>
  <g id="Group_302" data-name="Group 302" transform="translate(114.067 112.228)">
    <g id="Group_301" data-name="Group 301">
      <g id="Group_300" data-name="Group 300">
        <path id="Path_738" data-name="Path 738" d="M3095.383,1625.245c-14.583,0-26.447-12.646-26.447-28.19a29.373,29.373,0,0,1,4.517-15.762,1.4,1.4,0,0,1,2.024-.418,1.617,1.617,0,0,1,.391,2.157,26.133,26.133,0,0,0-4.017,14.023c0,13.831,10.556,25.084,23.533,25.084s23.531-11.253,23.531-25.084a1.46,1.46,0,1,1,2.914,0C3121.828,1612.6,3109.964,1625.245,3095.383,1625.245Z" transform="translate(-3068.936 -1580.609)" fill="#4965ae"/>
      </g>
    </g>
  </g>
  <g id="Group_315" data-name="Group 315" transform="translate(133.958 85.678)">
    <g id="Group_306" data-name="Group 306" transform="translate(12.709 6.999)">
      <g id="Group_305" data-name="Group 305">
        <g id="Group_303" data-name="Group 303" transform="translate(0.719 0.966)">
          <path id="Path_739" data-name="Path 739" d="M3103.928,1570.82l5.745,6.14-4.416,4.272q-7.057,6.815-14.111,13.634a1.9,1.9,0,0,1-2.785.124,9.593,9.593,0,0,1-1.359-1.445,2.23,2.23,0,0,1,.1-2.971q8.247-9.7,16.5-19.4C3103.718,1571.04,3103.837,1570.919,3103.928,1570.82Z" transform="translate(-3086.486 -1570.82)" fill="#002577"/>
        </g>
        <g id="Group_304" data-name="Group 304">
          <path id="Path_740" data-name="Path 740" d="M3090.025,1596.714a2.737,2.737,0,0,1-1.8-.719,10.332,10.332,0,0,1-1.462-1.555,2.969,2.969,0,0,1,.127-3.881l17.283-20.248.619.469,6.233,6.664-19.038,18.4A2.842,2.842,0,0,1,3090.025,1596.714Zm14.256-24.365L3088,1591.5a1.518,1.518,0,0,0-.08,2.064,8.832,8.832,0,0,0,1.257,1.335,1.181,1.181,0,0,0,1.809-.095l18.016-17.41Z" transform="translate(-3086.107 -1570.311)" fill="#00173f"/>
        </g>
      </g>
    </g>
    <g id="Group_310" data-name="Group 310" transform="translate(0 30.48)">
      <g id="Group_309" data-name="Group 309">
        <g id="Group_307" data-name="Group 307" transform="translate(0.842 0.723)">
          <path id="Path_741" data-name="Path 741" d="M3079.863,1597.577c.563-2.726,1.1-5.445,1.695-8.153a9.863,9.863,0,0,1,1.453-3.594,5.708,5.708,0,0,1,6.111-2.645,5.962,5.962,0,0,1,4.777,4.574,5.369,5.369,0,0,1-.723,4.272,9.46,9.46,0,0,1-5.413,4.262,25.971,25.971,0,0,1-7.773,1.291A.512.512,0,0,1,3079.863,1597.577Z" transform="translate(-3079.856 -1583.059)" fill="#002577"/>
        </g>
        <g id="Group_308" data-name="Group 308">
          <path id="Path_742" data-name="Path 742" d="M3080.838,1598.705l-.509-.051-.368.011-.346-.406-.2-.382.17-.254.46-2.244c.4-1.925.789-3.849,1.205-5.766a10.553,10.553,0,0,1,1.566-3.854,6.436,6.436,0,0,1,6.843-2.941,6.685,6.685,0,0,1,5.334,5.083,6.035,6.035,0,0,1-.792,4.832,10.133,10.133,0,0,1-5.8,4.587,26.293,26.293,0,0,1-7.545,1.316Zm7.435-14.577a5.085,5.085,0,0,0-4.272,2.457,9.094,9.094,0,0,0-1.338,3.338c-.414,1.912-.807,3.826-1.2,5.749l-.309,1.5a24.428,24.428,0,0,0,6.77-1.219,8.75,8.75,0,0,0,5.022-3.936,4.621,4.621,0,0,0,.657-3.714,5.257,5.257,0,0,0-4.218-4.063A5.833,5.833,0,0,0,3088.273,1584.128Z" transform="translate(-3079.413 -1582.679)" fill="#00173f"/>
        </g>
      </g>
    </g>
    <g id="Group_314" data-name="Group 314" transform="translate(30.744)">
      <g id="Group_313" data-name="Group 313">
        <g id="Group_311" data-name="Group 311" transform="translate(0.97 0.724)">
          <path id="Path_743" data-name="Path 743" d="M3101.965,1579.476l-5.848-6.241c.349-.414.729-.866,1.111-1.316,1.236-1.453,2.482-2.9,3.7-4.363a1.131,1.131,0,0,1,1.4-.452,8.106,8.106,0,0,1,2.058,1.2,24.779,24.779,0,0,1,2.419,2.6,3.583,3.583,0,0,1,.948,2.216,1.54,1.54,0,0,1-.309,1.019C3105.633,1575.954,3103.785,1577.718,3101.965,1579.476Z" transform="translate(-3096.117 -1567.006)" fill="#002577"/>
        </g>
        <g id="Group_312" data-name="Group 312">
          <path id="Path_744" data-name="Path 744" d="M3102.4,1580.851l-6.793-7.247,2.688-3.171q1.276-1.492,2.541-3a1.837,1.837,0,0,1,2.255-.647,8.918,8.918,0,0,1,2.235,1.318,25.958,25.958,0,0,1,2.493,2.681,4.3,4.3,0,0,1,1.118,2.663,2.215,2.215,0,0,1-.522,1.551c-1.426,1.422-2.875,2.819-4.313,4.207Zm-4.855-7.3,4.9,5.234.646-.623c1.433-1.378,2.878-2.77,4.3-4.188a1.126,1.126,0,0,0,.1-.493,2.84,2.84,0,0,0-.778-1.762,24.342,24.342,0,0,0-2.347-2.531,7.565,7.565,0,0,0-1.876-1.084c-.078-.04-.238-.11-.539.258q-1.267,1.512-2.552,3.011Z" transform="translate(-3095.606 -1566.625)" fill="#00173f"/>
        </g>
      </g>
    </g>
  </g>
</svg>
