<svg xmlns="http://www.w3.org/2000/svg" width="163.229" height="144.74" viewBox="0 0 163.229 144.74">
  <g id="Group_469" data-name="Group 469" transform="translate(-3783.913 -1526.825)">
    <g id="Group_459" data-name="Group 459" transform="translate(3783.913 1526.825)">
      <g id="Group_457" data-name="Group 457" transform="translate(3.286 2.955)">
        <rect id="Rectangle_60" data-name="Rectangle 60" width="156.656" height="112.98" rx="4.118" fill="#002577"/>
      </g>
      <g id="Group_458" data-name="Group 458">
        <path id="Path_798" data-name="Path 798" d="M3932.907,1645.715H3798.148a14.389,14.389,0,0,1-14.235-14.509v-89.872a14.389,14.389,0,0,1,14.235-14.509h134.759a14.39,14.39,0,0,1,14.235,14.509v89.872A14.39,14.39,0,0,1,3932.907,1645.715Zm-134.759-114.891a10.425,10.425,0,0,0-10.312,10.511v89.872a10.425,10.425,0,0,0,10.312,10.511h134.759a10.425,10.425,0,0,0,10.312-10.511v-89.872a10.425,10.425,0,0,0-10.312-10.511Z" transform="translate(-3783.913 -1526.825)" fill="#00173f"/>
      </g>
    </g>
    <g id="Group_461" data-name="Group 461" transform="translate(3834.133 1643.435)">
      <g id="Group_460" data-name="Group 460">
        <path id="Path_799" data-name="Path 799" d="M3871.649,1602.682v8.21h-63.181v-8.21h15.363v-19.92h33.562v19.92Z" transform="translate(-3808.468 -1582.762)" fill="#00173f"/>
      </g>
    </g>
    <g id="Group_462" data-name="Group 462" transform="translate(3797.718 1540.603)">
      <path id="Path_800" data-name="Path 800" d="M3791.163,1549.338c2.886,0,3.291-1.614,3.291-3.064a25.284,25.284,0,0,0-.323-3.477,24.4,24.4,0,0,1-.327-3.438c0-3.811,2.439-5.424,5.892-5.424h.853v2.275h-.73c-2.4,0-3.209,1.326-3.209,3.563a18.472,18.472,0,0,0,.283,2.939,19.9,19.9,0,0,1,.284,3.15c.041,2.651-1.1,3.975-2.925,4.474v.081c1.828.457,2.965,1.864,2.925,4.516a19.436,19.436,0,0,1-.284,3.148,19,19,0,0,0-.283,2.981c0,2.32.935,3.6,3.209,3.6h.73v2.276h-.853c-3.373,0-5.892-1.491-5.892-5.674a23.786,23.786,0,0,1,.327-3.4,23.525,23.525,0,0,0,.323-3.354c0-1.284-.4-3.064-3.291-3.064Z" transform="translate(-3790.14 -1532.892)" fill="#fff"/>
      <path id="Path_801" data-name="Path 801" d="M3802.093,1568.525h-1.875c-4.458,0-6.915-2.387-6.915-6.716a24.639,24.639,0,0,1,.339-3.55,22.684,22.684,0,0,0,.311-3.2c0-1.213-.386-2.022-2.268-2.022h-1.022v-4.2h1.022c2.1,0,2.268-.876,2.268-2.022a24.431,24.431,0,0,0-.311-3.325,25.434,25.434,0,0,1-.339-3.59c0-4.111,2.521-6.467,6.915-6.467h1.875v4.359h-1.752c-1.636,0-2.187.636-2.187,2.52a17.372,17.372,0,0,0,.268,2.769,20.694,20.694,0,0,1,.3,3.321,5.348,5.348,0,0,1-1.75,4.511,5.47,5.47,0,0,1,1.75,4.576,20.146,20.146,0,0,1-.3,3.3,17.944,17.944,0,0,0-.268,2.81c0,2.135.837,2.562,2.187,2.562h1.752Zm-7.152-16.429a4.068,4.068,0,0,1,1.058,2.962,24.569,24.569,0,0,1-.333,3.507,22.51,22.51,0,0,0-.317,3.244c0,3.1,1.5,4.58,4.7,4.63v-.2c-1.593-.077-3.939-.838-3.939-4.64a19.886,19.886,0,0,1,.294-3.146,18.054,18.054,0,0,0,.272-2.983C3796.711,1553.195,3795.8,1552.419,3794.941,1552.1Zm-2.233-1.067a4.722,4.722,0,0,1,1.043.286v-.73a4.862,4.862,0,0,1-1.043.267Zm7.34-15.508c-3.119.05-4.7,1.524-4.7,4.38a23.064,23.064,0,0,0,.3,3.206,26.959,26.959,0,0,1,.346,3.709,4.183,4.183,0,0,1-.888,2.841c.835-.386,1.6-1.2,1.565-3.237a18.918,18.918,0,0,0-.272-3,19.118,19.118,0,0,1-.294-3.1c0-3.615,2.076-4.517,3.939-4.6Z" transform="translate(-3790.663 -1533.434)" fill="#fff"/>
    </g>
    <g id="Group_463" data-name="Group 463" transform="translate(3922.857 1594.397)">
      <path id="Path_802" data-name="Path 802" d="M3861.736,1577.256c-2.884,0-3.292,1.782-3.292,3.065a23.249,23.249,0,0,0,.327,3.354,24.067,24.067,0,0,1,.325,3.4c0,4.184-2.561,5.675-5.892,5.675h-.853v-2.277h.689c2.276-.042,3.252-1.284,3.252-3.6a25.648,25.648,0,0,0-.285-2.983,19.116,19.116,0,0,1-.325-3.148c0-2.65,1.135-4.059,2.924-4.515v-.081c-1.79-.5-2.924-1.822-2.924-4.471a19.6,19.6,0,0,1,.325-3.15,24.959,24.959,0,0,0,.285-2.939c0-2.239-.853-3.521-3.211-3.562h-.73v-2.276h.81c3.456,0,5.935,1.613,5.935,5.424a24.687,24.687,0,0,1-.325,3.438,25.029,25.029,0,0,0-.327,3.479c0,1.449.409,3.065,3.292,3.065Z" transform="translate(-3851.328 -1558.697)" fill="#fff"/>
      <path id="Path_803" data-name="Path 803" d="M3853.726,1594.33h-1.875v-4.361h1.711c1.368-.027,2.229-.465,2.229-2.56a16.76,16.76,0,0,0-.186-2.134l-.09-.724a19.484,19.484,0,0,1-.333-3.273,5.584,5.584,0,0,1,1.777-4.557,5.5,5.5,0,0,1-1.777-4.511,20.222,20.222,0,0,1,.325-3.238l.086-.656a17.16,17.16,0,0,0,.2-2.2c0-1.855-.559-2.491-2.207-2.521h-1.734v-4.361h1.833c4.356,0,6.957,2.418,6.957,6.466a24.4,24.4,0,0,1-.315,3.429,25.731,25.731,0,0,0-.337,3.488c0,1.146.167,2.022,2.27,2.022h1.022v4.2h-1.022c-1.884,0-2.27.809-2.27,2.022a22.177,22.177,0,0,0,.311,3.162,25.552,25.552,0,0,1,.341,3.588C3860.64,1591.883,3858.119,1594.33,3853.726,1594.33Zm.17-2.291v.2c3.162-.05,4.7-1.568,4.7-4.63a23.018,23.018,0,0,0-.317-3.241,24.641,24.641,0,0,1-.335-3.509,4.056,4.056,0,0,1,1.082-2.985c-.685.248-1.8.948-1.8,3.4a18,18,0,0,0,.311,2.975l.094.749a18.549,18.549,0,0,1,.205,2.407C3857.837,1590.98,3855.763,1591.92,3853.9,1592.039Zm6.256-15.662v.759a4.728,4.728,0,0,1,1.084-.3v-.177A4.97,4.97,0,0,1,3860.151,1576.377Zm-6.256-14.849c1.871.11,3.941,1.036,3.941,4.593a19.1,19.1,0,0,1-.217,2.47l-.076.6a18.97,18.97,0,0,0-.317,3.021c0,2.082.781,2.891,1.622,3.271a4.159,4.159,0,0,1-.906-2.858,25.957,25.957,0,0,1,.329-3.579,24.162,24.162,0,0,0,.323-3.338c0-2.843-1.583-4.317-4.7-4.38Z" transform="translate(-3851.851 -1559.239)" fill="#fff"/>
    </g>
    <g id="Group_464" data-name="Group 464" transform="translate(3814.446 1554.403)">
      <path id="Path_804" data-name="Path 804" d="M3804.661,1546.211c0,3.2-2.579,4.657-5.819,4.657v-1.551c2.4,0,4.3-.969,4.3-3.106v-4.547h-2.851v-1.536h4.373Z" transform="translate(-3798.842 -1539.974)" fill="#fff"/>
      <path id="Path_805" data-name="Path 805" d="M3808.462,1547.782h-3.781c-.41.984-.935,2.275-1.268,3.167h-1.643l4.236-10.895h1.116l4.234,10.895h-1.628Zm-3.209-1.459h2.622l-1.3-3.794Z" transform="translate(-3795.782 -1540.054)" fill="#fff"/>
      <path id="Path_806" data-name="Path 806" d="M3813.712,1540.128h1.628L3811.1,1550.9h-1.117l-4.234-10.769h1.659l3.133,8.036Z" transform="translate(-3791.618 -1539.974)" fill="#fff"/>
      <path id="Path_807" data-name="Path 807" d="M3816.5,1547.782h-3.782c-.409.984-.934,2.275-1.268,3.167h-1.643l4.236-10.895h1.117l4.233,10.895h-1.628Zm-3.209-1.459h2.622l-1.3-3.794Z" transform="translate(-3787.377 -1540.054)" fill="#fff"/>
      <path id="Path_808" data-name="Path 808" d="M3814.6,1547.333l1.1-2.827h1.763l-1.342,2.827Z" transform="translate(-3782.375 -1535.225)" fill="#fff"/>
    </g>
    <g id="Group_465" data-name="Group 465" transform="translate(3852.812 1554.403)">
      <path id="Path_809" data-name="Path 809" d="M3824.293,1547.782h-3.782c-.409.984-.935,2.275-1.268,3.167H3817.6l4.235-10.895h1.117l4.233,10.895h-1.628Zm-3.209-1.459h2.622l-1.3-3.794Z" transform="translate(-3817.602 -1540.054)" fill="#fff"/>
      <path id="Path_810" data-name="Path 810" d="M3822.543,1550.884v-10.769l1.174.015,5.142,7.574v-7.574h1.507v10.755h-1.207l-5.094-7.513v7.513Z" transform="translate(-3812.436 -1539.989)" fill="#fff"/>
      <path id="Path_811" data-name="Path 811" d="M3830.841,1540.128a5.373,5.373,0,0,1,0,10.74h-3.784v-10.74Zm0,9.189a3.821,3.821,0,0,0,0-7.636h-2.26v7.636Z" transform="translate(-3807.718 -1539.974)" fill="#fff"/>
      <path id="Path_812" data-name="Path 812" d="M3834.094,1545.422h1.779a1.867,1.867,0,1,0,0-3.734h-2.335v9.187h-1.509v-10.755h3.845a3.3,3.3,0,0,1,3.436,3.425,3.218,3.218,0,0,1-2.728,3.287l3.332,4.042h-1.974l-3.845-4.718Z" transform="translate(-3802.522 -1539.981)" fill="#fff"/>
      <path id="Path_813" data-name="Path 813" d="M3837.514,1541.682a5.263,5.263,0,0,1,7.613,0,5.608,5.608,0,0,1,0,7.776,5.264,5.264,0,0,1-7.613,0,5.6,5.6,0,0,1,0-7.776Zm6.527,1.109a3.842,3.842,0,0,0-2.729-1.169,3.748,3.748,0,0,0-2.7,1.169,3.985,3.985,0,0,0,0,5.562,3.761,3.761,0,0,0,2.7,1.165,3.857,3.857,0,0,0,2.729-1.165,4.027,4.027,0,0,0,0-5.562Z" transform="translate(-3798.427 -1540.054)" fill="#fff"/>
      <path id="Path_814" data-name="Path 814" d="M3846.892,1541.664h-1.959v7.653h1.959v1.551h-5.442v-1.551h1.959v-7.653h-1.959v-1.536h5.442Z" transform="translate(-3792.676 -1539.974)" fill="#fff"/>
      <path id="Path_815" data-name="Path 815" d="M3848.443,1540.128a5.373,5.373,0,0,1,0,10.74h-3.786v-10.74Zm0,9.189a3.821,3.821,0,0,0,0-7.636h-2.26v7.636Z" transform="translate(-3789.323 -1539.974)" fill="#fff"/>
    </g>
    <g id="Group_466" data-name="Group 466" transform="translate(3815.125 1573.705)">
      <path id="Path_816" data-name="Path 816" d="M3800.681,1549.387v10.74h-1.507v-10.74Zm.287,4.978,3.68-4.978h1.912l-4.022,5.331,4.446,5.41h-1.99l-4.025-4.978Z" transform="translate(-3799.174 -1549.233)" fill="#fff"/>
      <path id="Path_817" data-name="Path 817" d="M3804.415,1550.941a5.262,5.262,0,0,1,7.612,0,5.6,5.6,0,0,1,0,7.776,5.263,5.263,0,0,1-7.612,0,5.607,5.607,0,0,1,0-7.776Zm6.528,1.107a3.851,3.851,0,0,0-2.728-1.167,3.745,3.745,0,0,0-2.7,1.167,3.985,3.985,0,0,0,0,5.562,3.744,3.744,0,0,0,2.7,1.168,3.85,3.85,0,0,0,2.728-1.168,4.025,4.025,0,0,0,0-5.562Z" transform="translate(-3795.334 -1549.313)" fill="#fff"/>
      <path id="Path_818" data-name="Path 818" d="M3811.207,1560.182v-9.235h-3.195v-1.568h7.9v1.568h-3.18v9.235Z" transform="translate(-3789.937 -1549.242)" fill="#fff"/>
      <path id="Path_819" data-name="Path 819" d="M3813.887,1558.574h4.958v1.553h-6.481v-10.74h1.523Z" transform="translate(-3785.389 -1549.233)" fill="#fff"/>
      <path id="Path_820" data-name="Path 820" d="M3821.3,1550.924h-1.959v7.651h1.959v1.553h-5.44v-1.553h1.959v-7.651h-1.959v-1.537h5.44Z" transform="translate(-3781.733 -1549.233)" fill="#fff"/>
      <path id="Path_821" data-name="Path 821" d="M3819.062,1560.142v-10.769l1.174.012,5.142,7.575v-7.575h1.507v10.757h-1.207l-5.095-7.513v7.513Z" transform="translate(-3778.387 -1549.248)" fill="#fff"/>
    </g>
    <g id="Group_467" data-name="Group 467" transform="translate(3815.051 1592.544)">
      <path id="Path_822" data-name="Path 822" d="M3800.66,1569.1h-1.521v-10.738h6.285v1.551h-4.763v3.026h4.219v1.566h-4.219Z" transform="translate(-3799.138 -1558.341)" fill="#fff"/>
      <path id="Path_823" data-name="Path 823" d="M3804.148,1567.545h4.959v1.551h-6.481v-10.738h1.522Z" transform="translate(-3795.492 -1558.341)" fill="#fff"/>
      <path id="Path_824" data-name="Path 824" d="M3806.071,1565.869v-7.511h1.538v7.527c0,1.184,1.252,1.768,2.366,1.768s2.352-.6,2.352-1.784v-7.511h1.539v7.527c0,2.181-2.082,3.319-3.89,3.319C3808.12,1569.2,3806.071,1568.066,3806.071,1565.869Z" transform="translate(-3791.892 -1558.341)" fill="#fff"/>
      <path id="Path_825" data-name="Path 825" d="M3813.5,1569.153v-9.235h-3.195v-1.568h7.9v1.568h-3.182v9.235Z" transform="translate(-3787.465 -1558.35)" fill="#fff"/>
      <path id="Path_826" data-name="Path 826" d="M3817.838,1569.153v-9.235h-3.194v-1.568h7.9v1.568h-3.182v9.235Z" transform="translate(-3782.932 -1558.35)" fill="#fff"/>
      <path id="Path_827" data-name="Path 827" d="M3820.523,1567.545h4.9v1.551h-6.436v-10.738h6.421v1.551h-4.886v3.026h4.78v1.566h-4.78Z" transform="translate(-3778.392 -1558.341)" fill="#fff"/>
      <path id="Path_828" data-name="Path 828" d="M3824.71,1563.651h1.781a1.867,1.867,0,1,0,0-3.733h-2.337v9.187h-1.508V1558.35h3.845a3.3,3.3,0,0,1,3.435,3.427,3.22,3.22,0,0,1-2.729,3.288l3.332,4.04h-1.974l-3.845-4.715Z" transform="translate(-3774.567 -1558.35)" fill="#fff"/>
    </g>
    <g id="Group_468" data-name="Group 468" transform="translate(3815.125 1610.676)">
      <path id="Path_829" data-name="Path 829" d="M3802.959,1567.123a5.372,5.372,0,0,1,0,10.738h-3.785v-10.738Zm0,9.187a3.821,3.821,0,0,0,0-7.636H3800.7v7.636Z" transform="translate(-3799.174 -1566.967)" fill="#fff"/>
      <path id="Path_830" data-name="Path 830" d="M3810.24,1574.776h-3.782c-.407.984-.935,2.274-1.266,3.167h-1.644l4.235-10.894h1.117l4.236,10.894h-1.628Zm-3.209-1.459h2.622l-1.295-3.794Z" transform="translate(-3794.603 -1567.048)" fill="#fff"/>
      <path id="Path_831" data-name="Path 831" d="M3810.717,1572.416h1.779a1.867,1.867,0,1,0,0-3.734h-2.336v9.187h-1.507v-10.755h3.843a3.3,3.3,0,0,1,3.436,3.425,3.218,3.218,0,0,1-2.729,3.287l3.332,4.042h-1.974l-3.845-4.718Z" transform="translate(-3789.267 -1566.975)" fill="#fff"/>
      <path id="Path_832" data-name="Path 832" d="M3815.05,1577.916v-9.356h-3.194v-1.445h7.9v1.445h-3.183v9.356Z" transform="translate(-3785.92 -1566.975)" fill="#fff"/>
    </g>
  </g>
</svg>
