<svg xmlns="http://www.w3.org/2000/svg" width="152.26" height="139.94" viewBox="0 0 152.26 139.94">
  <g id="Group_1221" data-name="Group 1221" transform="translate(-350 -2455.785)">
    <g id="Group_379" data-name="Group 379" transform="translate(350 2455.785)">
      <g id="Group_354" data-name="Group 354">
        <g id="Group_352" data-name="Group 352" transform="translate(1.551 1.55)">
          <rect id="Rectangle_39" data-name="Rectangle 39" width="69.159" height="136.838" fill="#002577"/>
        </g>
        <g id="Group_353" data-name="Group 353">
          <path id="Path_760" data-name="Path 760" d="M3368.208,1666.712h-72.26v-139.94h72.26Zm-69.16-3.1h66.06V1529.872h-66.06Z" transform="translate(-3295.949 -1526.772)" fill="#00173f"/>
        </g>
      </g>
      <g id="Group_359" data-name="Group 359" transform="translate(19.187 7.205)">
        <g id="Group_356" data-name="Group 356" transform="translate(0.417 0.417)">
          <g id="Group_355" data-name="Group 355">
            <circle id="Ellipse_17" data-name="Ellipse 17" cx="2.334" cy="2.334" r="2.334" fill="#fff"/>
          </g>
        </g>
        <g id="Group_358" data-name="Group 358">
          <g id="Group_357" data-name="Group 357">
            <path id="Path_761" data-name="Path 761" d="M3308.033,1535.78a2.751,2.751,0,1,1,2.75-2.752A2.755,2.755,0,0,1,3308.033,1535.78Zm0-4.668a1.917,1.917,0,1,0,1.916,1.916A1.918,1.918,0,0,0,3308.033,1531.111Z" transform="translate(-3305.282 -1530.277)" fill="#00173f"/>
          </g>
        </g>
      </g>
      <g id="Group_362" data-name="Group 362" transform="translate(29.558 9.121)">
        <g id="Group_361" data-name="Group 361">
          <g id="Group_360" data-name="Group 360">
            <path id="Path_762" data-name="Path 762" d="M3322.639,1532.878h-11.477a.835.835,0,0,1,0-1.669h11.477a.835.835,0,0,1,0,1.669Z" transform="translate(-3310.327 -1531.209)" fill="#fff"/>
          </g>
        </g>
      </g>
      <g id="Group_366" data-name="Group 366" transform="translate(30.633 121.165)">
        <g id="Group_365" data-name="Group 365">
          <g id="Group_363" data-name="Group 363" transform="translate(0.385 0.388)">
            <circle id="Ellipse_18" data-name="Ellipse 18" cx="5.112" cy="5.112" r="5.112" fill="#4965ae"/>
          </g>
          <g id="Group_364" data-name="Group 364">
            <path id="Path_763" data-name="Path 763" d="M3316.349,1596.715a5.5,5.5,0,1,1,5.5-5.5A5.506,5.506,0,0,1,3316.349,1596.715Zm0-10.225a4.725,4.725,0,1,0,4.724,4.726A4.731,4.731,0,0,0,3316.349,1586.49Z" transform="translate(-3310.851 -1585.715)" fill="#00173f"/>
          </g>
        </g>
      </g>
      <g id="Group_378" data-name="Group 378" transform="translate(7.427 49.311)">
        <g id="Group_371" data-name="Group 371" transform="translate(21.929)">
          <g id="Group_368" data-name="Group 368" transform="translate(0.421 0.417)">
            <g id="Group_367" data-name="Group 367">
              <path id="Path_764" data-name="Path 764" d="M3323.429,1550.963a2.964,2.964,0,0,1,2.872,3.988q-2.7,8.43-5.437,16.852-2.112,6.534-4.222,13.066c-.115.355-.222.713-.355,1.061a2.985,2.985,0,0,1-3.844,1.807,2.945,2.945,0,0,1-1.852-3.76q4.427-13.752,8.87-27.5c.382-1.182.744-2.372,1.161-3.542A2.9,2.9,0,0,1,3323.429,1550.963Z" transform="translate(-3310.434 -1550.963)" fill="#fff"/>
            </g>
          </g>
          <g id="Group_370" data-name="Group 370">
            <g id="Group_369" data-name="Group 369">
              <path id="Path_765" data-name="Path 765" d="M3313.716,1588.548a3.67,3.67,0,0,1-1.194-.2,3.342,3.342,0,0,1-2.113-4.284q3.429-10.656,6.874-21.312l2.29-7.1c.279-.882.562-1.766.872-2.635a3.292,3.292,0,0,1,3.2-2.251h.015a3.413,3.413,0,0,1,2.8,1.371,3.487,3.487,0,0,1,.458,3.161q-1.948,6.084-3.922,12.161l-5.811,17.993c-.091.283-.181.567-.288.847A3.38,3.38,0,0,1,3313.716,1588.548Zm9.931-36.954a2.485,2.485,0,0,0-2.416,1.7c-.309.862-.586,1.733-.863,2.607l-2.292,7.106q-3.439,10.656-6.875,21.313a2.527,2.527,0,0,0,1.589,3.238,2.576,2.576,0,0,0,3.32-1.562c.1-.263.187-.532.273-.8l5.813-18q1.967-6.077,3.92-12.159a2.659,2.659,0,0,0-.337-2.413,2.586,2.586,0,0,0-2.124-1.03Z" transform="translate(-3310.229 -1550.76)" fill="#00173f"/>
            </g>
          </g>
        </g>
        <g id="Group_374" data-name="Group 374" transform="translate(36.223 19.668)">
          <g id="Group_373" data-name="Group 373">
            <g id="Group_372" data-name="Group 372">
              <path id="Path_766" data-name="Path 766" d="M3328.307,1570.458c-1.207-.561-2.3-1.073-3.4-1.583-1.971-.917-3.947-1.827-5.916-2.753a3.036,3.036,0,0,1-1.53-4.027,2.951,2.951,0,0,1,3.968-1.486q7.6,3.487,15.165,7.031a3.151,3.151,0,0,1,.008,5.669q-7.545,3.525-15.1,7.014a2.979,2.979,0,0,1-4.008-1.406,3.023,3.023,0,0,1,1.5-4.083c2.884-1.365,5.782-2.695,8.675-4.042C3327.837,1570.709,3328.011,1570.61,3328.307,1570.458Z" transform="translate(-3317.183 -1560.328)" fill="#4965ae"/>
            </g>
          </g>
        </g>
        <g id="Group_377" data-name="Group 377" transform="translate(0 5.47)">
          <g id="Group_376" data-name="Group 376">
            <g id="Group_375" data-name="Group 375">
              <path id="Path_767" data-name="Path 767" d="M3309.6,1563.576c1.373.637,2.623,1.219,3.873,1.8,1.86.864,3.739,1.688,5.575,2.6a3.018,3.018,0,1,1-2.716,5.39c-2.035-.929-4.06-1.879-6.088-2.823-2.911-1.355-5.816-2.722-8.732-4.058a3.156,3.156,0,0,1-.015-5.828c5-2.312,9.993-4.642,15-6.948a2.938,2.938,0,0,1,3.425.647,3.066,3.066,0,0,1-1.035,4.89q-4.033,1.865-8.058,3.741C3310.457,1563.159,3310.093,1563.339,3309.6,1563.576Z" transform="translate(-3299.562 -1553.421)" fill="#4965ae"/>
            </g>
          </g>
        </g>
      </g>
    </g>
    <g id="Group_1218" data-name="Group 1218" transform="translate(430 2455.785)">
      <g id="Group_354-2" data-name="Group 354">
        <g id="Group_352-2" data-name="Group 352" transform="translate(1.551 1.55)">
          <rect id="Rectangle_39-2" data-name="Rectangle 39" width="69.159" height="136.838" fill="#002577"/>
        </g>
        <g id="Group_353-2" data-name="Group 353">
          <path id="Path_760-2" data-name="Path 760" d="M3368.208,1666.712h-72.26v-139.94h72.26Zm-69.16-3.1h66.06V1529.872h-66.06Z" transform="translate(-3295.949 -1526.772)" fill="#00173f"/>
        </g>
      </g>
      <g id="Group_359-2" data-name="Group 359" transform="translate(19.187 7.205)">
        <g id="Group_356-2" data-name="Group 356" transform="translate(0.417 0.417)">
          <g id="Group_355-2" data-name="Group 355">
            <circle id="Ellipse_17-2" data-name="Ellipse 17" cx="2.334" cy="2.334" r="2.334" fill="#fff"/>
          </g>
        </g>
        <g id="Group_358-2" data-name="Group 358">
          <g id="Group_357-2" data-name="Group 357">
            <path id="Path_761-2" data-name="Path 761" d="M3308.033,1535.78a2.751,2.751,0,1,1,2.75-2.752A2.755,2.755,0,0,1,3308.033,1535.78Zm0-4.668a1.917,1.917,0,1,0,1.916,1.916A1.918,1.918,0,0,0,3308.033,1531.111Z" transform="translate(-3305.282 -1530.277)" fill="#00173f"/>
          </g>
        </g>
      </g>
      <g id="Group_362-2" data-name="Group 362" transform="translate(29.558 9.121)">
        <g id="Group_361-2" data-name="Group 361">
          <g id="Group_360-2" data-name="Group 360">
            <path id="Path_762-2" data-name="Path 762" d="M3322.639,1532.878h-11.477a.835.835,0,0,1,0-1.669h11.477a.835.835,0,0,1,0,1.669Z" transform="translate(-3310.327 -1531.209)" fill="#fff"/>
          </g>
        </g>
      </g>
      <g id="Group_366-2" data-name="Group 366" transform="translate(30.633 121.165)">
        <g id="Group_365-2" data-name="Group 365">
          <g id="Group_363-2" data-name="Group 363" transform="translate(0.385 0.388)">
            <circle id="Ellipse_18-2" data-name="Ellipse 18" cx="5.112" cy="5.112" r="5.112" fill="#4965ae"/>
          </g>
          <g id="Group_364-2" data-name="Group 364">
            <path id="Path_763-2" data-name="Path 763" d="M3316.349,1596.715a5.5,5.5,0,1,1,5.5-5.5A5.506,5.506,0,0,1,3316.349,1596.715Zm0-10.225a4.725,4.725,0,1,0,4.724,4.726A4.731,4.731,0,0,0,3316.349,1586.49Z" transform="translate(-3310.851 -1585.715)" fill="#00173f"/>
          </g>
        </g>
      </g>
      <g id="Group_378-2" data-name="Group 378" transform="translate(7.427 49.311)">
        <g id="Group_374-2" data-name="Group 374" transform="translate(40.636 19.668)">
          <g id="Group_373-2" data-name="Group 373" transform="translate(0.533)">
            <g id="Group_372-2" data-name="Group 372">
              <path id="Path_766-2" data-name="Path 766" d="M3325.71,1568.093c-.925-.43-1.766-.822-2.609-1.213-1.511-.7-3.025-1.4-4.535-2.11a2.327,2.327,0,0,1-1.173-3.087,2.262,2.262,0,0,1,3.042-1.139q5.823,2.673,11.624,5.389a2.416,2.416,0,0,1,.006,4.346q-5.784,2.7-11.578,5.376a2.284,2.284,0,0,1-3.073-1.078,2.317,2.317,0,0,1,1.147-3.129c2.21-1.046,4.432-2.066,6.649-3.1C3325.349,1568.285,3325.483,1568.209,3325.71,1568.093Z" transform="translate(-3317.183 -1560.328)" fill="#fff"/>
            </g>
          </g>
        </g>
        <g id="Group_377-2" data-name="Group 377" transform="translate(0 5.47)">
          <g id="Group_376-2" data-name="Group 376">
            <g id="Group_375-2" data-name="Group 375">
              <path id="Path_767-2" data-name="Path 767" d="M3307.26,1561.208l2.97,1.379c1.427.662,2.867,1.294,4.275,1.994a2.315,2.315,0,1,1-2.083,4.134c-1.561-.713-3.113-1.441-4.669-2.165-2.232-1.039-4.46-2.087-6.7-3.112a2.42,2.42,0,0,1-.011-4.469c3.834-1.773,7.663-3.559,11.5-5.328a2.253,2.253,0,0,1,2.626.5,2.351,2.351,0,0,1-.793,3.75q-3.093,1.43-6.179,2.869C3307.916,1560.888,3307.637,1561.027,3307.26,1561.208Z" transform="translate(-3299.562 -1553.421)" fill="#fff"/>
            </g>
          </g>
        </g>
        <g id="Group_1219" data-name="Group 1219" transform="translate(18.879 13.246)">
          <g id="Group_416" data-name="Group 416">
            <path id="Path_784" data-name="Path 784" d="M3564.82,1546.6c-.48-1.089.35-1.551,1.268-1.966a2.323,2.323,0,0,0,.43-.244,1.052,1.052,0,0,1,1.482.078,4.866,4.866,0,0,0,5.925.034.927.927,0,0,1,1.23-.058c.444.3.907.575,1.378.829a.878.878,0,0,1,.474,1.021,5.01,5.01,0,0,0,3.042,5.4.772.772,0,0,1,.537.8c-.019.619-.021,1.238-.025,1.858a.777.777,0,0,1-.606.813,5.024,5.024,0,0,0-3.21,5.279.851.851,0,0,1-.488,1.013c-.517.258-1.017.55-1.519.835a.786.786,0,0,1-1.012-.095,5.007,5.007,0,0,0-6.275-.1.7.7,0,0,1-.9.078c-.561-.347-1.16-.645-1.68-1.044a1.039,1.039,0,0,1-.347-.809,5.1,5.1,0,0,0-3.02-5.483.8.8,0,0,1-.558-.849,16.666,16.666,0,0,0,.017-1.671.944.944,0,0,1,.746-1.041A5.069,5.069,0,0,0,3564.82,1546.6Zm10.066,6.721a4.141,4.141,0,0,0-8.28-.136,4.167,4.167,0,0,0,4.083,4.21A4.125,4.125,0,0,0,3574.886,1553.323Z" transform="translate(-3560.946 -1544.123)" fill="#4965ae"/>
          </g>
        </g>
      </g>
    </g>
  </g>
</svg>
