<svg xmlns="http://www.w3.org/2000/svg" width="141.732" height="29.408" viewBox="0 0 141.732 29.408">
  <g id="Group_997" data-name="Group 997" transform="translate(-1287.505 -151.451)">
    <g id="Group_3" data-name="Group 3" transform="translate(1287.505 151.451)">
      <g id="Group_1" data-name="Group 1" transform="translate(0.927 0)">
        <path id="Path_1" data-name="Path 1" d="M1322.007,167.139a1.611,1.611,0,0,1-.408.054,1.577,1.577,0,0,1-1.522-1.171l-.994-3.731a2.088,2.088,0,0,1-.169.237l-11.375,13.939a2.246,2.246,0,0,1-.451.5,2.207,2.207,0,0,1-3.106-.315l-4.816-5.9v5.819a2.208,2.208,0,1,1-4.415,0V164.625a2.208,2.208,0,0,1,3.442-1.831l0,0a2.2,2.2,0,0,1,.591.508l6.9,8.451,9.809-12.02.008-.009-4.006.263c-.036,0-.07,0-.106,0a1.577,1.577,0,0,1-.1-3.151l7.993-.526h.024a1.579,1.579,0,0,1,1.758,1.153l2.06,7.74A1.576,1.576,0,0,1,1322.007,167.139Z" transform="translate(-1294.752 -156.299)" fill="#83899b"/>
      </g>
      <g id="Group_2" data-name="Group 2" transform="translate(0 23.14)">
        <circle id="Ellipse_1" data-name="Ellipse 1" cx="3.134" cy="3.134" r="3.134" fill="#83899b"/>
      </g>
    </g>
    <g id="Group_4" data-name="Group 4" transform="translate(1327.954 152.74)">
      <path id="Path_2" data-name="Path 2" d="M1550.037,208.772a6.328,6.328,0,0,1,4.982,2.289,8.21,8.21,0,0,1,1.99,5.58v5.266a8.658,8.658,0,0,1-.045,1.032,2.451,2.451,0,0,1-.254.763q-.419.808-2.334.808-2.125,0-2.453-1.107a4.868,4.868,0,0,1-.18-1.526v-5.266a2.4,2.4,0,0,0-2.588-2.6,2.619,2.619,0,0,0-1.915.718,2.519,2.519,0,0,0-.733,1.885v5.3a8.69,8.69,0,0,1-.045,1.032,2.128,2.128,0,0,1-.284.763q-.389.808-2.3.808-1.885,0-2.3-.808a2.764,2.764,0,0,1-.254-.793,8.688,8.688,0,0,1-.045-1.032V211.286a8.354,8.354,0,0,1,.045-1,2.121,2.121,0,0,1,.284-.763q.419-.748,2.3-.748,1.825,0,2.244.688a2.384,2.384,0,0,1,.3,1.227,3.042,3.042,0,0,1,.539-.6,5.263,5.263,0,0,1,.808-.628A3.919,3.919,0,0,1,1550.037,208.772Z" transform="translate(-1541.27 -201.352)" fill="#83899b"/>
      <path id="Path_3" data-name="Path 3" d="M1682.074,208.3a8.219,8.219,0,0,1,11.46-.015,8.247,8.247,0,0,1,1.2,10.323,8.064,8.064,0,0,1-3.126,2.843,8.482,8.482,0,0,1-3.815.913,8.148,8.148,0,0,1-3.83-.972,8.485,8.485,0,0,1-3.127-2.872,7.54,7.54,0,0,1-1.272-4.294A7.733,7.733,0,0,1,1682.074,208.3Zm3.74,8.064a3.176,3.176,0,0,0,1.945.733,3.263,3.263,0,0,0,1.975-.748,3.005,3.005,0,0,0,.06-4.4,3.21,3.21,0,0,0-2-.718,3.133,3.133,0,0,0-2.005.748,2.658,2.658,0,0,0-.927,2.2A2.578,2.578,0,0,0,1685.815,216.363Z" transform="translate(-1661.878 -198.903)" fill="#83899b"/>
      <path id="Path_4" data-name="Path 4" d="M1824.012,177.334l-1.945-.12v4.129a2.063,2.063,0,0,0,.254,1.167,1.1,1.1,0,0,0,.957.359,9.709,9.709,0,0,1,1.077.045,2.128,2.128,0,0,1,.793.284q.688.389.688,2,0,1.885-.838,2.3a2.769,2.769,0,0,1-.793.254,8.319,8.319,0,0,1-1,.045,7,7,0,0,1-4.728-1.406q-1.616-1.406-1.616-4.757v-4.428a7.883,7.883,0,0,1-1.227.09,1.374,1.374,0,0,1-1.092-.509,2.691,2.691,0,0,1-.434-1.735,7.522,7.522,0,0,1,.15-1.78,1.6,1.6,0,0,1,.419-.793,1.837,1.837,0,0,1,1.2-.389l.988.12v-3.082a8.281,8.281,0,0,1,.045-1.017,1.885,1.885,0,0,1,.284-.718q.389-.748,2.3-.748,2.034,0,2.424,1.107a5.612,5.612,0,0,1,.15,1.526v2.932q1.316-.119,1.99-.12a8.488,8.488,0,0,1,1.017.045,2.4,2.4,0,0,1,.793.284q.778.389.778,2.3,0,1.885-.808,2.3a2.777,2.777,0,0,1-.793.254A8.733,8.733,0,0,1,1824.012,177.334Z" transform="translate(-1779.22 -164.617)" fill="#83899b"/>
      <path id="Path_5" data-name="Path 5" d="M1932.484,212.526a3.635,3.635,0,0,1-.913,2.723,2.846,2.846,0,0,1-2.02.883h-7.091a1.64,1.64,0,0,0,.988,1.406,3.926,3.926,0,0,0,1.975.568,8.237,8.237,0,0,0,2.723-.359l.329-.12a3.019,3.019,0,0,1,1.2-.329q.957,0,1.646,1.346a3.307,3.307,0,0,1,.389,1.376q0,2.663-6.373,2.663a9.617,9.617,0,0,1-3.935-.763,6.681,6.681,0,0,1-2.678-2.02,8.6,8.6,0,0,1-1.885-5.416,7.824,7.824,0,0,1,2.438-6.029,8.617,8.617,0,0,1,6.089-2.259,6.8,6.8,0,0,1,6.1,2.932A6.085,6.085,0,0,1,1932.484,212.526Zm-6.313.883q1.137,0,1.137-.958a1.35,1.35,0,0,0-.524-1.107,2.347,2.347,0,0,0-1.5-.419,3.025,3.025,0,0,0-1.93.793,2.225,2.225,0,0,0-.958,1.691Z" transform="translate(-1868.812 -199.107)" fill="#83899b"/>
      <path id="Path_6" data-name="Path 6" d="M2066.565,212.526a3.635,3.635,0,0,1-.913,2.723,2.847,2.847,0,0,1-2.02.883h-7.091a1.64,1.64,0,0,0,.988,1.406,3.926,3.926,0,0,0,1.975.568,8.237,8.237,0,0,0,2.723-.359l.329-.12a3.022,3.022,0,0,1,1.2-.329q.957,0,1.646,1.346a3.311,3.311,0,0,1,.389,1.376q0,2.663-6.373,2.663a9.617,9.617,0,0,1-3.935-.763,6.68,6.68,0,0,1-2.678-2.02,8.6,8.6,0,0,1-1.885-5.416,7.824,7.824,0,0,1,2.438-6.029,8.617,8.617,0,0,1,6.089-2.259,6.8,6.8,0,0,1,6.1,2.932A6.086,6.086,0,0,1,2066.565,212.526Zm-6.313.883q1.137,0,1.137-.958a1.35,1.35,0,0,0-.523-1.107,2.349,2.349,0,0,0-1.5-.419,3.025,3.025,0,0,0-1.93.793,2.226,2.226,0,0,0-.958,1.691Z" transform="translate(-1985.748 -199.107)" fill="#83899b"/>
      <path id="Path_7" data-name="Path 7" d="M2190.282,158.191q2.065,0,2.424,1.137a5.106,5.106,0,0,1,.179,1.5,4.588,4.588,0,0,1-.195,1.481,1.4,1.4,0,0,1-.614.793,3.739,3.739,0,0,1-1.825.359l-1.915-.12v8.019a3.856,3.856,0,0,1-.284,1.69,1.408,1.408,0,0,1-.868.733,5.263,5.263,0,0,1-1.511.179,4.58,4.58,0,0,1-1.481-.194,1.38,1.38,0,0,1-.793-.628,2.242,2.242,0,0,1-.284-.793,9.127,9.127,0,0,1-.045-1.047v-7.929h-1.077a1.852,1.852,0,0,1-1.107-.359,3.121,3.121,0,0,1-.569-2.184q0-2.453,1.765-2.454h.988v-1.586a6.165,6.165,0,0,1,1.646-4.174,6,6,0,0,1,4.758-1.87,8.658,8.658,0,0,1,1.032.045,2.4,2.4,0,0,1,.793.284q.807.389.808,2.3a3.3,3.3,0,0,1-.509,2.064,1.832,1.832,0,0,1-1.317.539h-.838q-1.107,0-1.107.748v1.646Zm9.29-2.947a1.267,1.267,0,0,1-.792.613,6.453,6.453,0,0,1-3.022,0,1.255,1.255,0,0,1-.793-.628,2.555,2.555,0,0,1-.269-.793,11.885,11.885,0,0,1,0-2.065,2.439,2.439,0,0,1,.254-.763q.419-.808,2.334-.808,1.885,0,2.274.808a2.4,2.4,0,0,1,.284.793,11.884,11.884,0,0,1,0,2.065A2.4,2.4,0,0,1,2199.572,155.243Zm-4.922,5.55a8.668,8.668,0,0,1,.045-1.032,2.762,2.762,0,0,1,.254-.793q.419-.778,2.334-.778a3.165,3.165,0,0,1,2.034.509,1.649,1.649,0,0,1,.539,1.287q.03.3.03.868v10.472a8.663,8.663,0,0,1-.045,1.032,2.4,2.4,0,0,1-.284.793q-.39.778-2.3.778-1.885,0-2.3-.808a2.776,2.776,0,0,1-.254-.778,8.609,8.609,0,0,1-.045-1.047Z" transform="translate(-2098.604 -150.74)" fill="#83899b"/>
    </g>
  </g>
</svg>
