<svg xmlns="http://www.w3.org/2000/svg" width="145.266" height="41.409" viewBox="0 0 145.266 41.409">
  <g id="Group_1584" data-name="Group 1584" transform="translate(-2702.831 -548.472)">
    <path id="Path_1" data-name="Path 1" d="M2700.148,588.049s-9.2-26.024-7.333-31.919c0,0,.863-8.2,9.921-6.47,0,0,8.483,2.588,9.49,2.588,0,0-4.026,2.732-6.757,3.163,0,0,3.45.287,7.62-2.588,2.4-1.651,5.983-3.292,8.944-2.291,5.146,1.74,4.841,9.74,2.847,13.648-4.114,8.061-13.49,11.582-16.762,20.057-.805,2.088-1.636,6.242-4.251,6.572C2702.113,591.028,2700.672,589.586,2700.148,588.049Z" transform="translate(10.267 -0.949)" fill="#83899b"/>
    <path id="Path_2" data-name="Path 2" d="M2735,595.7s10.783-8.74,11.646-12.584c0,0-1.869,15.172-3.163,18.767-.9,2.491-3.345,4.173-5.421,1.75C2737.175,602.6,2733.518,596.9,2735,595.7Z" transform="translate(-11.501 -18.377)" fill="#83899b"/>
    <g id="Group_1" data-name="Group 1" transform="translate(2753.933 549.421)">
      <path id="Path_3" data-name="Path 3" d="M2819.912,577.649a7.252,7.252,0,0,1-.689,3.245,6.739,6.739,0,0,1-1.868,2.33,8.129,8.129,0,0,1-2.755,1.4,11.7,11.7,0,0,1-3.373.471,11.983,11.983,0,0,1-2.258-.2,12.743,12.743,0,0,1-1.84-.481,8.034,8.034,0,0,1-1.333-.589,3.864,3.864,0,0,1-.771-.544,1.354,1.354,0,0,1-.335-.68,6.2,6.2,0,0,1-.1-1.278q0-.561.036-.943a2.694,2.694,0,0,1,.118-.617.676.676,0,0,1,.217-.335.524.524,0,0,1,.317-.1,1.505,1.505,0,0,1,.716.3,12.532,12.532,0,0,0,1.188.662,10.7,10.7,0,0,0,1.732.662,8.2,8.2,0,0,0,2.33.3,5.376,5.376,0,0,0,1.559-.208,3.492,3.492,0,0,0,1.17-.589,2.508,2.508,0,0,0,.734-.943,3.008,3.008,0,0,0,.254-1.251,2.192,2.192,0,0,0-.435-1.368,4.335,4.335,0,0,0-1.134-1.016,11.839,11.839,0,0,0-1.587-.834q-.888-.39-1.831-.825a16.625,16.625,0,0,1-1.831-.988,7.389,7.389,0,0,1-1.587-1.324,6.244,6.244,0,0,1-1.133-1.822,6.583,6.583,0,0,1-.435-2.521,6.663,6.663,0,0,1,.625-2.964,6.077,6.077,0,0,1,1.687-2.122,7.173,7.173,0,0,1,2.5-1.26,10.952,10.952,0,0,1,3.056-.417,11.146,11.146,0,0,1,1.668.127,11.426,11.426,0,0,1,1.559.345,8.711,8.711,0,0,1,1.287.49,3.04,3.04,0,0,1,.744.453,1.3,1.3,0,0,1,.245.308,1.452,1.452,0,0,1,.109.335,3.511,3.511,0,0,1,.064.526q.017.317.018.788,0,.526-.027.888a3.259,3.259,0,0,1-.091.6.713.713,0,0,1-.181.344.45.45,0,0,1-.317.109,1.5,1.5,0,0,1-.635-.254q-.435-.254-1.07-.553a10.118,10.118,0,0,0-1.468-.543,6.491,6.491,0,0,0-1.832-.245,4.388,4.388,0,0,0-1.36.19,2.823,2.823,0,0,0-.97.526,2.082,2.082,0,0,0-.58.807,2.635,2.635,0,0,0-.19,1,2.195,2.195,0,0,0,.426,1.351,4.077,4.077,0,0,0,1.143,1.015,12.307,12.307,0,0,0,1.623.834q.906.39,1.849.825a18.118,18.118,0,0,1,1.849.988,7.456,7.456,0,0,1,1.614,1.324,6.168,6.168,0,0,1,1.142,1.813A6.347,6.347,0,0,1,2819.912,577.649Z" transform="translate(-2804.591 -560.804)" fill="#83899b"/>
      <path id="Path_4" data-name="Path 4" d="M2860.791,587.362a.493.493,0,0,1-.108.317.8.8,0,0,1-.363.227,3.023,3.023,0,0,1-.689.136,10.953,10.953,0,0,1-1.106.045,11.193,11.193,0,0,1-1.125-.045,3.187,3.187,0,0,1-.7-.136.736.736,0,0,1-.363-.227.523.523,0,0,1-.1-.317V577.77a6.664,6.664,0,0,0-.154-1.487,3.5,3.5,0,0,0-.471-1.151,2.235,2.235,0,0,0-.8-.743,2.364,2.364,0,0,0-1.151-.263,2.727,2.727,0,0,0-1.65.635,11.024,11.024,0,0,0-1.813,1.849v10.752a.493.493,0,0,1-.108.317.8.8,0,0,1-.372.227,3.173,3.173,0,0,1-.7.136,10.742,10.742,0,0,1-1.088.045,10.97,10.97,0,0,1-1.106-.045,3.184,3.184,0,0,1-.7-.136.8.8,0,0,1-.372-.227.493.493,0,0,1-.108-.317V577.77a6.62,6.62,0,0,0-.154-1.487,3.64,3.64,0,0,0-.462-1.151,2.134,2.134,0,0,0-.8-.743,2.375,2.375,0,0,0-1.142-.263,2.747,2.747,0,0,0-1.669.635,10.563,10.563,0,0,0-1.8,1.849v10.752a.493.493,0,0,1-.108.317.8.8,0,0,1-.372.227,3.184,3.184,0,0,1-.7.136,13.509,13.509,0,0,1-2.212,0,3.181,3.181,0,0,1-.7-.136.8.8,0,0,1-.372-.227.492.492,0,0,1-.109-.317V571.189a.555.555,0,0,1,.091-.317.664.664,0,0,1,.327-.227,2.616,2.616,0,0,1,.607-.136,8.043,8.043,0,0,1,.934-.045,8.484,8.484,0,0,1,.96.045,2.2,2.2,0,0,1,.589.136.664.664,0,0,1,.3.227.559.559,0,0,1,.091.317v1.868a10.707,10.707,0,0,1,2.675-2.176,5.749,5.749,0,0,1,2.783-.725,7.126,7.126,0,0,1,1.795.208,5.137,5.137,0,0,1,1.423.6,4.48,4.48,0,0,1,1.079.934,5.464,5.464,0,0,1,.762,1.215,13.686,13.686,0,0,1,1.423-1.342,8.418,8.418,0,0,1,1.378-.916,6.332,6.332,0,0,1,1.36-.526,5.638,5.638,0,0,1,1.387-.172,6.121,6.121,0,0,1,2.719.544,4.771,4.771,0,0,1,1.786,1.478,5.948,5.948,0,0,1,.97,2.185,11.715,11.715,0,0,1,.29,2.647Z" transform="translate(-2815.328 -564.099)" fill="#83899b"/>
      <path id="Path_5" data-name="Path 5" d="M2896.549,587.416a.484.484,0,0,1-.181.4,1.238,1.238,0,0,1-.571.208,7.658,7.658,0,0,1-1.151.064,7.779,7.779,0,0,1-1.188-.064,1.017,1.017,0,0,1-.526-.208.52.52,0,0,1-.154-.4v-1.287a7.366,7.366,0,0,1-2.275,1.668,6.614,6.614,0,0,1-2.838.6,7.923,7.923,0,0,1-2.366-.335,5.334,5.334,0,0,1-1.868-1,4.491,4.491,0,0,1-1.223-1.641,5.581,5.581,0,0,1-.435-2.285,5.171,5.171,0,0,1,.552-2.457,4.5,4.5,0,0,1,1.651-1.722,8.2,8.2,0,0,1,2.728-1.006,19.5,19.5,0,0,1,3.79-.326h1.578v-.979a5.122,5.122,0,0,0-.154-1.333,2.21,2.21,0,0,0-.508-.951,2.089,2.089,0,0,0-.942-.562,5.023,5.023,0,0,0-1.46-.181,7.49,7.49,0,0,0-2.04.254,11.568,11.568,0,0,0-1.586.562q-.689.308-1.152.562a1.674,1.674,0,0,1-.752.254.537.537,0,0,1-.353-.127.918.918,0,0,1-.254-.362,2.5,2.5,0,0,1-.154-.58,4.894,4.894,0,0,1-.054-.762,3.44,3.44,0,0,1,.09-.889,1.364,1.364,0,0,1,.344-.589,3.394,3.394,0,0,1,.888-.58,10.525,10.525,0,0,1,1.487-.589,13.821,13.821,0,0,1,1.858-.444,13.663,13.663,0,0,1,5.331.2,5.5,5.5,0,0,1,2.221,1.142,4.442,4.442,0,0,1,1.27,1.986,9.29,9.29,0,0,1,.4,2.883Zm-4.479-6.926h-1.741a9.4,9.4,0,0,0-1.885.163,3.644,3.644,0,0,0-1.27.49,2.015,2.015,0,0,0-.716.789,2.377,2.377,0,0,0-.227,1.061,2.038,2.038,0,0,0,.644,1.6,2.569,2.569,0,0,0,1.786.58,3.341,3.341,0,0,0,1.767-.49,7.32,7.32,0,0,0,1.641-1.433Z" transform="translate(-2831.788 -564.099)" fill="#83899b"/>
      <path id="Path_6" data-name="Path 6" d="M2923.611,572.694q0,.653-.036,1.07a3.348,3.348,0,0,1-.109.653.642.642,0,0,1-.19.326.478.478,0,0,1-.3.091.985.985,0,0,1-.327-.063c-.121-.042-.257-.087-.408-.136s-.317-.093-.5-.136a2.65,2.65,0,0,0-.6-.063,2.02,2.02,0,0,0-.761.154,3.214,3.214,0,0,0-.789.481,5.867,5.867,0,0,0-.852.87,14.039,14.039,0,0,0-.952,1.342v10.081a.49.49,0,0,1-.109.317.8.8,0,0,1-.372.227,3.2,3.2,0,0,1-.7.136,13.514,13.514,0,0,1-2.212,0,3.184,3.184,0,0,1-.7-.136.8.8,0,0,1-.372-.227.492.492,0,0,1-.109-.317V571.189a.561.561,0,0,1,.091-.317.668.668,0,0,1,.326-.227,2.639,2.639,0,0,1,.608-.136,8.056,8.056,0,0,1,.935-.045,8.507,8.507,0,0,1,.961.045,2.2,2.2,0,0,1,.589.136.666.666,0,0,1,.3.227.553.553,0,0,1,.091.317V573.2a12.926,12.926,0,0,1,1.2-1.5,6.81,6.81,0,0,1,1.069-.934,3.384,3.384,0,0,1,1.015-.481,3.916,3.916,0,0,1,1.016-.136q.235,0,.508.027a4.957,4.957,0,0,1,.562.091,3.833,3.833,0,0,1,.508.145,1.009,1.009,0,0,1,.318.172.573.573,0,0,1,.145.2,1.657,1.657,0,0,1,.082.3,4.53,4.53,0,0,1,.054.571Q2923.611,572.041,2923.611,572.694Z" transform="translate(-2842.87 -564.099)" fill="#83899b"/>
      <path id="Path_7" data-name="Path 7" d="M2943.766,583.616a5.688,5.688,0,0,1-.1,1.224,1.32,1.32,0,0,1-.263.6,1.428,1.428,0,0,1-.48.308,4.471,4.471,0,0,1-.743.236,7.686,7.686,0,0,1-.925.154,9.29,9.29,0,0,1-1.006.054,7.22,7.22,0,0,1-2.357-.345,3.909,3.909,0,0,1-1.65-1.06,4.41,4.41,0,0,1-.961-1.8,9.5,9.5,0,0,1-.309-2.575v-8.286h-1.94q-.345,0-.526-.426a3.964,3.964,0,0,1-.181-1.424,7.173,7.173,0,0,1,.045-.888,2.1,2.1,0,0,1,.136-.571.667.667,0,0,1,.227-.3.56.56,0,0,1,.317-.091h1.922v-3.608a.561.561,0,0,1,.1-.326.748.748,0,0,1,.362-.245,2.876,2.876,0,0,1,.707-.145q.445-.046,1.1-.045.671,0,1.115.045a2.739,2.739,0,0,1,.7.145.812.812,0,0,1,.363.245.53.53,0,0,1,.109.326v3.608h3.518a.562.562,0,0,1,.317.091.665.665,0,0,1,.226.3,2.142,2.142,0,0,1,.136.571,7.369,7.369,0,0,1,.045.888,3.959,3.959,0,0,1-.181,1.424c-.121.284-.3.426-.526.426h-3.536v7.6a3.781,3.781,0,0,0,.417,1.985,1.616,1.616,0,0,0,1.487.662,3.025,3.025,0,0,0,.653-.064,4.112,4.112,0,0,0,.517-.145c.15-.054.278-.1.38-.145a.753.753,0,0,1,.281-.063.387.387,0,0,1,.209.063.429.429,0,0,1,.154.254,3.892,3.892,0,0,1,.1.517A6.3,6.3,0,0,1,2943.766,583.616Z" transform="translate(-2849.602 -561.949)" fill="#83899b"/>
    </g>
    <g id="Group_2" data-name="Group 2" transform="translate(2761.042 583.016)">
      <path id="Path_8" data-name="Path 8" d="M2821.227,616.018a4.658,4.658,0,0,1-.245,1.6,2.714,2.714,0,0,1-.7,1.087,2.806,2.806,0,0,1-1.113.618,5.458,5.458,0,0,1-1.561.2h-1.626a.434.434,0,0,1-.292-.1.421.421,0,0,1-.119-.335v-5.938a.42.42,0,0,1,.119-.334.431.431,0,0,1,.292-.1h1.747a4.9,4.9,0,0,1,1.546.213,2.815,2.815,0,0,1,1.069.632,2.712,2.712,0,0,1,.66,1.034A4.126,4.126,0,0,1,2821.227,616.018Zm-1.432.047a3.42,3.42,0,0,0-.113-.9,1.893,1.893,0,0,0-.364-.721,1.669,1.669,0,0,0-.641-.477,2.611,2.611,0,0,0-1.03-.171h-.7v4.632h.721a2.733,2.733,0,0,0,.958-.147,1.609,1.609,0,0,0,.65-.445,1.948,1.948,0,0,0,.39-.74A3.728,3.728,0,0,0,2819.795,616.065Z" transform="translate(-2815.567 -612.691)" fill="#83899b"/>
      <path id="Path_9" data-name="Path 9" d="M2850.511,618.982a2.166,2.166,0,0,1-.013.255.688.688,0,0,1-.04.166.2.2,0,0,1-.066.092.141.141,0,0,1-.086.029h-3.422a.432.432,0,0,1-.292-.1.421.421,0,0,1-.119-.335v-5.938a.42.42,0,0,1,.119-.334.43.43,0,0,1,.292-.1h3.4a.145.145,0,0,1,.085.027.2.2,0,0,1,.063.092.706.706,0,0,1,.04.168,2.027,2.027,0,0,1,.013.26,1.933,1.933,0,0,1-.013.251.662.662,0,0,1-.04.166.231.231,0,0,1-.062.092.135.135,0,0,1-.085.029h-2.432v1.663h2.058a.142.142,0,0,1,.087.029.212.212,0,0,1,.066.089.6.6,0,0,1,.039.163,2.453,2.453,0,0,1,0,.5.6.6,0,0,1-.039.161.192.192,0,0,1-.066.087.152.152,0,0,1-.087.026h-2.058v1.922h2.453a.145.145,0,0,1,.086.029.207.207,0,0,1,.066.093.688.688,0,0,1,.04.166A2.158,2.158,0,0,1,2850.511,618.982Z" transform="translate(-2826.457 -612.691)" fill="#83899b"/>
      <path id="Path_10" data-name="Path 10" d="M2880.622,619.028a.52.52,0,0,1-.042.216.455.455,0,0,1-.113.158.446.446,0,0,1-.169.093.712.712,0,0,1-.2.029h-.59a1.211,1.211,0,0,1-.319-.037.633.633,0,0,1-.248-.134,1.193,1.193,0,0,1-.218-.263q-.1-.166-.237-.429l-1.695-3.185q-.148-.285-.3-.613t-.274-.64h-.01c.014.253.024.505.031.756s.01.51.01.776v3.564a.164.164,0,0,1-.028.095.214.214,0,0,1-.1.071.776.776,0,0,1-.192.045,2.387,2.387,0,0,1-.31.016,2.326,2.326,0,0,1-.305-.016.73.73,0,0,1-.19-.045.187.187,0,0,1-.095-.071.169.169,0,0,1-.027-.095V613.2a.461.461,0,0,1,.145-.371.529.529,0,0,1,.355-.124h.742a1.421,1.421,0,0,1,.337.034.692.692,0,0,1,.245.113.876.876,0,0,1,.2.218,2.734,2.734,0,0,1,.2.345l1.327,2.49q.116.226.229.444c.075.146.148.291.218.437l.206.429q.1.21.195.421h.005q-.017-.368-.024-.769c-.005-.267-.007-.521-.007-.763v-3.2a.151.151,0,0,1,.032-.095.237.237,0,0,1,.1-.074.674.674,0,0,1,.195-.045,2.913,2.913,0,0,1,.311-.014,2.778,2.778,0,0,1,.3.014.584.584,0,0,1,.187.045.211.211,0,0,1,.092.074.176.176,0,0,1,.026.095Z" transform="translate(-2836.512 -612.679)" fill="#83899b"/>
      <path id="Path_11" data-name="Path 11" d="M2910.545,613.281a2.308,2.308,0,0,1-.013.26.7.7,0,0,1-.04.174.235.235,0,0,1-.065.1.136.136,0,0,1-.087.032h-1.706v5.491a.149.149,0,0,1-.034.1.238.238,0,0,1-.113.068,1.05,1.05,0,0,1-.213.042,3.461,3.461,0,0,1-.668,0,1.05,1.05,0,0,1-.213-.042.24.24,0,0,1-.113-.068.146.146,0,0,1-.034-.1v-5.491h-1.706a.129.129,0,0,1-.089-.032.233.233,0,0,1-.063-.1.7.7,0,0,1-.04-.174,2.3,2.3,0,0,1-.013-.26,2.436,2.436,0,0,1,.013-.269.706.706,0,0,1,.04-.176.211.211,0,0,1,.063-.095.137.137,0,0,1,.089-.029h4.8a.145.145,0,0,1,.087.029.213.213,0,0,1,.065.095.708.708,0,0,1,.04.176A2.449,2.449,0,0,1,2910.545,613.281Z" transform="translate(-2847.198 -612.691)" fill="#83899b"/>
    </g>
  </g>
</svg>
