<svg id="Group_410" data-name="Group 410" xmlns="http://www.w3.org/2000/svg" width="158.479" height="135.953" viewBox="0 0 158.479 135.953">
  <g id="Group_404" data-name="Group 404" transform="translate(11.746)">
    <g id="Group_382" data-name="Group 382" transform="translate(0 8.513)">
      <g id="Group_380" data-name="Group 380" transform="translate(3.76 3.258)">
        <rect id="Rectangle_40" data-name="Rectangle 40" width="139.213" height="98.5" rx="4.19" fill="#002577"/>
      </g>
      <g id="Group_381" data-name="Group 381">
        <path id="Path_768" data-name="Path 768" d="M3532.668,1636.314H3415.544a14.822,14.822,0,0,1-14.8-14.8V1546.1a14.822,14.822,0,0,1,14.8-14.8h117.124a14.823,14.823,0,0,1,14.805,14.8v75.407A14.823,14.823,0,0,1,3532.668,1636.314Zm-117.124-100.936a10.737,10.737,0,0,0-10.724,10.724v75.407a10.735,10.735,0,0,0,10.724,10.722h117.124a10.735,10.735,0,0,0,10.724-10.722V1546.1a10.737,10.737,0,0,0-10.724-10.724Z" transform="translate(-3400.74 -1531.298)" fill="#00173f"/>
      </g>
    </g>
    <g id="Group_384" data-name="Group 384" transform="translate(45.254 111.241)">
      <g id="Group_383" data-name="Group 383">
        <path id="Path_769" data-name="Path 769" d="M3479.329,1598.771v7.213h-56.575v-7.213h13.757v-17.5h30.054v17.5Z" transform="translate(-3422.755 -1581.272)" fill="#00173f"/>
      </g>
    </g>
    <g id="Group_386" data-name="Group 386" transform="translate(98.015 18.699)">
      <g id="Group_385" data-name="Group 385">
        <path id="Path_770" data-name="Path 770" d="M3484.06,1546.14c-.056.234-.1.528-.2.81q-3.71,11.563-7.425,23.122a2.287,2.287,0,0,1-1.912,1.739,2.774,2.774,0,0,1-1.182-.132q-7.715-2.454-15.417-4.94c-2.59-.833-5.18-1.661-7.766-2.5a2.289,2.289,0,0,1-1.587-3.108q2.275-7.135,4.575-14.264c.948-2.954,1.906-5.9,2.847-8.86a2.278,2.278,0,0,1,1.918-1.731,2.88,2.88,0,0,1,1.242.142q7.354,2.334,14.692,4.7c2.812.9,5.624,1.811,8.436,2.707a2.348,2.348,0,0,1,1.721,1.938C3484.025,1545.867,3484.035,1545.971,3484.06,1546.14Zm-9.874,23.525c.09-.232.166-.4.224-.58q3.6-11.2,7.192-22.4c.227-.705.218-.715-.483-.939l-22.343-7.148c-.625-.2-.649-.189-.853.44q-1.082,3.367-2.163,6.736-2.507,7.8-5.014,15.6c-.226.705-.222.707.475.938.081.027.163.049.245.076l14.143,4.533Z" transform="translate(-3448.421 -1536.253)" fill="#fff"/>
      </g>
    </g>
    <g id="Group_389" data-name="Group 389" transform="translate(98.769 83.269)">
      <g id="Group_387" data-name="Group 387" transform="translate(0.51 0.511)">
        <path id="Path_771" data-name="Path 771" d="M3479.659,1613.6a10.041,10.041,0,0,1-1.181-.362q-13.77-5.93-27.543-11.865a3.035,3.035,0,0,1-1.587-4.169c2.624-5.955,5.176-11.939,7.756-17.913q2.063-4.77,4.122-9.538a2.781,2.781,0,0,1,2.526-1.836,3.731,3.731,0,0,1,1.587.337c3.986,1.69,7.959,3.408,11.935,5.125q7.373,3.179,14.741,6.368c.313.135.631.263.937.409a2.8,2.8,0,0,1,1.48,3.8c-.8,1.912-1.636,3.811-2.458,5.713q-4.712,10.915-9.419,21.829a3.027,3.027,0,0,1-2.165,1.984C3480.187,1613.531,3479.977,1613.552,3479.659,1613.6Zm-27.972-14.911,28.224,12.184,12.167-28.173-28.208-12.176Z" transform="translate(-3449.035 -1567.913)" fill="#fff"/>
      </g>
      <g id="Group_388" data-name="Group 388">
        <path id="Path_772" data-name="Path 772" d="M3479.883,1614.384l-.109-.033c-.1-.029-.2-.058-.312-.086a6.241,6.241,0,0,1-.923-.3l-10.025-4.323q-8.754-3.78-17.516-7.542a3.672,3.672,0,0,1-1.975-2,3.618,3.618,0,0,1,.121-2.841c1.881-4.27,3.725-8.555,5.57-12.839l3.583-8.3q1.362-3.151,2.724-6.3a3.277,3.277,0,0,1,2.964-2.144,4.193,4.193,0,0,1,1.817.378c3.423,1.451,6.837,2.926,10.253,4.4l16.715,7.219c.222.095.446.189.664.294a3.305,3.305,0,0,1,1.731,4.463c-.572,1.361-1.16,2.715-1.746,4.07l-2.98,6.893q-3.581,8.288-7.154,16.583a3.53,3.53,0,0,1-2.524,2.282c-.146.033-.3.053-.481.078Zm-15.744-45.7-.1,0a2.259,2.259,0,0,0-2.084,1.525q-1.357,3.157-2.724,6.307l-3.583,8.3c-1.848,4.288-3.691,8.576-5.575,12.848a2.52,2.52,0,0,0,1.322,3.493q8.765,3.759,17.52,7.544l10.023,4.323a5.255,5.255,0,0,0,.781.247l.234.064.187-.027c.152-.02.275-.037.4-.064a2.521,2.521,0,0,0,1.809-1.69q3.568-8.295,7.154-16.583l2.979-6.895c.586-1.351,1.172-2.7,1.741-4.058a2.283,2.283,0,0,0-1.228-3.147c-.2-.1-.413-.185-.623-.273l-16.723-7.223c-3.412-1.472-6.825-2.946-10.247-4.4A3.325,3.325,0,0,0,3464.14,1568.685Zm16.3,43.119-29.161-12.589,12.587-29.1,29.145,12.58Zm-27.819-13.119,27.287,11.779,11.762-27.237-27.272-11.771Z" transform="translate(-3448.787 -1567.665)" fill="#00173f"/>
      </g>
    </g>
    <g id="Group_392" data-name="Group 392" transform="translate(20.228)">
      <g id="Group_390" data-name="Group 390" transform="translate(0.509 0.511)">
        <path id="Path_773" data-name="Path 773" d="M3440.113,1527.805a15.316,15.316,0,0,1,1.616-.376,2.691,2.691,0,0,1,2.979,1.9c.52,1.663,1.009,3.338,1.511,5.007q1.49,4.974,2.973,9.949c.666,2.239,1.307,4.481,1.973,6.718.631,2.113,1.238,4.235,1.935,6.327a3.019,3.019,0,0,1-2.22,4.134c-3.119.835-6.194,1.838-9.29,2.765-2.089.625-4.181,1.234-6.27,1.856q-4.828,1.443-9.653,2.892c-.933.28-1.864.574-2.8.831a2.723,2.723,0,0,1-3.353-1.717c-.389-1.056-.7-2.144-1.022-3.225-.929-3.12-1.836-6.249-2.769-9.37-1.151-3.859-2.325-7.709-3.48-11.565-.448-1.5-.894-3-1.293-4.512a2.722,2.722,0,0,1,1.938-3.486c1.812-.565,3.637-1.088,5.454-1.632q5.05-1.508,10.1-3.016c2.211-.656,4.432-1.293,6.644-1.951C3436.751,1528.839,3438.417,1528.321,3440.113,1527.805Zm-18.1,39.474c.423-.1.748-.162,1.065-.257q2.766-.817,5.529-1.646,2.651-.792,5.3-1.589,4.789-1.437,9.577-2.872c2.063-.617,4.132-1.217,6.193-1.836.335-.1.654-.251,1.044-.405-.3-.979-.574-1.881-.84-2.785-.64-2.165-1.262-4.333-1.91-6.494-1.169-3.906-2.358-7.805-3.525-11.709-.67-2.237-1.309-4.481-1.971-6.718-.091-.312-.236-.608-.378-.964l-28.612,8.539c.083.345.133.615.212.878q1.282,4.354,2.573,8.7.873,2.951,1.75,5.9,1.514,5.085,3.034,10.169C3421.359,1565.2,3421.677,1566.192,3422.015,1567.28Z" transform="translate(-3410.828 -1527.405)" fill="#fff"/>
      </g>
      <g id="Group_391" data-name="Group 391">
        <path id="Path_774" data-name="Path 774" d="M3422.336,1570.689a3.222,3.222,0,0,1-3.047-2.156c-.345-.946-.635-1.922-.915-2.866l-.115-.39q-.631-2.125-1.256-4.253-.752-2.559-1.511-5.116-.888-2.966-1.784-5.93-.852-2.815-1.7-5.635c-.416-1.39-.889-2.966-1.3-4.529a3.237,3.237,0,0,1,2.281-4.1c1.229-.385,2.467-.748,3.7-1.112l5.337-1.591q3.259-.974,6.518-1.947,1.626-.481,3.252-.954c1.13-.331,2.263-.66,3.392-1,1.153-.344,2.3-.695,3.462-1.051l1.6-.489c.156-.037.316-.08.477-.124a8.993,8.993,0,0,1,1.194-.261,3.188,3.188,0,0,1,3.529,2.255c.387,1.238.757,2.479,1.127,3.723l.9,3.024q1.231,4.11,2.455,8.218.472,1.582.931,3.17.515,1.773,1.042,3.548l.378,1.276c.49,1.657,1,3.371,1.55,5.034a3.713,3.713,0,0,1-.156,3,3.768,3.768,0,0,1-2.414,1.791c-2.125.569-4.27,1.229-6.342,1.869-.979.3-1.955.6-2.933.894q-1.641.49-3.283.972l-13.43,4.013c-.674.206-1.348.411-2.026.6A3.526,3.526,0,0,1,3422.336,1570.689Zm18.171-42.13-1.552.475c-1.161.358-2.312.709-3.468,1.055q-1.7.5-3.4,1-1.622.475-3.248.954-3.26.968-6.515,1.945l-5.342,1.593c-1.231.362-2.462.726-3.687,1.108a2.218,2.218,0,0,0-1.6,2.87c.407,1.544.876,3.112,1.291,4.5q.842,2.818,1.694,5.632.894,2.966,1.787,5.933.762,2.556,1.511,5.12.626,2.125,1.256,4.251l.115.39c.275.929.56,1.889.894,2.8a2.21,2.21,0,0,0,2.742,1.4c.67-.183,1.334-.384,2-.588l13.438-4.015q1.637-.484,3.276-.972c.977-.292,1.951-.592,2.926-.892,2.082-.639,4.236-1.3,6.378-1.877a2.767,2.767,0,0,0,1.78-1.289,2.734,2.734,0,0,0,.086-2.191c-.559-1.677-1.067-3.4-1.561-5.065l-.378-1.276q-.527-1.773-1.044-3.554c-.309-1.055-.615-2.109-.927-3.164q-1.221-4.11-2.454-8.214l-.9-3.026c-.37-1.239-.738-2.477-1.125-3.71a2.189,2.189,0,0,0-2.427-1.548,8.309,8.309,0,0,0-1.057.236C3440.832,1528.477,3440.668,1528.52,3440.507,1528.559Zm-18.577,39.59-.464-1.49c-.22-.7-.432-1.377-.633-2.054q-1.3-4.329-2.586-8.662l-4.773-16.112c-.056-.181-.1-.366-.142-.574l-.189-.8,29.525-8.812.309.767a6.674,6.674,0,0,1,.257.676q.428,1.449.849,2.9c.371,1.272.74,2.543,1.121,3.813q.932,3.123,1.879,6.245.823,2.732,1.645,5.464c.4,1.334.792,2.67,1.182,4.009l.73,2.485c.181.615.366,1.227.56,1.862l.417,1.373-.79.314a7.464,7.464,0,0,1-.731.275q-1.613.484-3.228.956-1.486.438-2.968.878-3.324.993-6.642,1.992l-8.239,2.471q-2.763.827-5.53,1.647c-.22.066-.444.115-.7.173Zm-7.575-28.989c.03.134.06.257.1.381l4.773,16.11q1.289,4.332,2.584,8.66c.2.674.411,1.344.629,2.043l.183.586c.208-.047.393-.091.578-.144q2.763-.817,5.525-1.644l8.237-2.471q3.32-1,6.644-1.992,1.483-.444,2.971-.88,1.612-.475,3.223-.954a5.974,5.974,0,0,0,.568-.214l-.144-.477c-.2-.637-.383-1.252-.563-1.868l-.729-2.49c-.391-1.334-.781-2.67-1.18-4q-.818-2.732-1.645-5.46-.943-3.123-1.881-6.249c-.38-1.272-.75-2.545-1.12-3.819-.284-.968-.563-1.934-.849-2.9-.049-.162-.115-.321-.185-.489Z" transform="translate(-3410.58 -1527.156)" fill="#00173f"/>
      </g>
    </g>
    <g id="Group_397" data-name="Group 397" transform="translate(61.578 46.226)">
      <g id="Group_394" data-name="Group 394" transform="translate(7.548)">
        <g id="Group_393" data-name="Group 393">
          <path id="Path_775" data-name="Path 775" d="M3455.679,1574.512a30.615,30.615,0,0,1-5.249,21.286,7.96,7.96,0,0,1-.539.734,1.6,1.6,0,0,1-2.092.385,1.728,1.728,0,0,1-.761-2.1,4.086,4.086,0,0,1,.471-.777,25.574,25.574,0,0,0,4.847-16.595c-.717-11.263-6.165-19.4-16.4-24.255a5.962,5.962,0,0,1-.814-.405,1.7,1.7,0,0,1-.608-2.144,1.636,1.636,0,0,1,2.019-.908,21.106,21.106,0,0,1,2.866,1.27,30.253,30.253,0,0,1,15.045,18.394C3454.972,1571.073,3455.278,1572.808,3455.679,1574.512Z" transform="translate(-3434.367 -1549.644)" fill="#4965ae"/>
        </g>
      </g>
      <g id="Group_396" data-name="Group 396" transform="translate(0 10.245)">
        <g id="Group_395" data-name="Group 395">
          <path id="Path_776" data-name="Path 776" d="M3445.575,1570.263a20.845,20.845,0,0,1-2.442,12.227,24.131,24.131,0,0,1-1.4,2.347,1.709,1.709,0,1,1-2.866-1.854,23.018,23.018,0,0,0,2.638-5.571,15.22,15.22,0,0,0-6.3-17.477c-1.109-.761-2.322-1.371-3.5-2.035a1.669,1.669,0,0,1-1.007-1.62,1.6,1.6,0,0,1,1.1-1.558,2.091,2.091,0,0,1,1.355.037c6.066,2.814,10.451,7.117,12.083,13.816.088.362.181.722.259,1.083C3445.536,1569.858,3445.55,1570.061,3445.575,1570.263Z" transform="translate(-3430.696 -1554.628)" fill="#4965ae"/>
        </g>
      </g>
    </g>
    <g id="Group_399" data-name="Group 399" transform="translate(107.467 29.602)">
      <g id="Group_398" data-name="Group 398">
        <path id="Path_777" data-name="Path 777" d="M3453.019,1550.926c2.329.656,3.271.506,4.294.078a3.222,3.222,0,0,1-1.768-2.822l.886.269a3.175,3.175,0,0,1-.919-3.507l.687.473a12.934,12.934,0,0,1-.216-2.05,2.485,2.485,0,0,1,1.1-1.811,7.773,7.773,0,0,0,4.744,4.769c.09-.232.161-.425.24-.615a3.034,3.034,0,0,1,2.414-1.955,2.935,2.935,0,0,1,3.028,1.209,1.221,1.221,0,0,0,1.258.52c.337-.033.672-.074,1.121-.121a3.05,3.05,0,0,1-1.511,1.295h1.445a2.474,2.474,0,0,1-1.242.8.993.993,0,0,0-.715.713,8.712,8.712,0,0,1-14.665,3.04A2.084,2.084,0,0,1,3453.019,1550.926Z" transform="translate(-3453.019 -1541.557)" fill="#fff"/>
      </g>
    </g>
    <g id="Group_401" data-name="Group 401" transform="translate(111.811 97.47)">
      <g id="Group_400" data-name="Group 400">
        <path id="Path_778" data-name="Path 778" d="M3475.4,1582.938a6.893,6.893,0,0,1-.3,1.143c-.791,1.887-1.6,3.768-2.434,5.633a3.3,3.3,0,0,1-4.563,1.811q-5.464-2.328-10.9-4.73a3.3,3.3,0,0,1-1.771-4.455q1.2-2.867,2.473-5.7a3.3,3.3,0,0,1,4.529-1.741c3.139,1.332,6.259,2.707,9.386,4.064.578.25,1.167.479,1.724.771A3.357,3.357,0,0,1,3475.4,1582.938Zm-11.008-3.151-2.2,5.112,5.941-.5Z" transform="translate(-3455.132 -1574.572)" fill="#4965ae"/>
      </g>
    </g>
    <g id="Group_403" data-name="Group 403" transform="translate(41.014 8.531)">
      <g id="Group_402" data-name="Group 402">
        <path id="Path_779" data-name="Path 779" d="M3427.531,1539.223l2.52-.6,1.044,3.419-2.534.781,2.909,9.812c-.7.224-1.343.452-2,.635-.637.179-1.289.313-2.051.5l-2.93-9.744-2.74.816-1.061-3.464,2.706-.867c-.062-.253-.109-.493-.176-.728a7.842,7.842,0,0,1-.255-3.875,4.655,4.655,0,0,1,3.535-3.846c.787-.206,1.554-.479,2.424-.75l.984,3.244c-1.134.543-2.362.849-2.711,2.177A3.909,3.909,0,0,0,3427.531,1539.223Z" transform="translate(-3420.691 -1531.307)" fill="#fff"/>
      </g>
    </g>
  </g>
  <g id="Group_409" data-name="Group 409" transform="translate(0 47.93)">
    <g id="Group_406" data-name="Group 406" transform="translate(17.462 51.654)">
      <g id="Group_405" data-name="Group 405">
        <path id="Path_780" data-name="Path 780" d="M3403.521,1580.51l18.038,17.158s4.584,5.287,9.721,2.214a24.709,24.709,0,0,0,7.554-6.773l-17.728-17.508Z" transform="translate(-3403.521 -1575.601)" fill="#4965ae"/>
      </g>
    </g>
    <g id="Group_408" data-name="Group 408">
      <g id="Group_407" data-name="Group 407">
        <path id="Path_781" data-name="Path 781" d="M3470.091,1608.543a4.877,4.877,0,0,1-5.4,1.03,6.767,6.767,0,0,1-2.592-1.712c-9.988-9.988-26.76-7.01-29.708-6.387l-.041.01-20.772,5.805c-9.806,2.744-18.865-7.408-16.028-16.988a11.7,11.7,0,0,1,8.009-7.733l13-3.836c7.6-2.243,15.656-3.959,21.86-9.224a29.774,29.774,0,0,0,9.61-15.16,5.081,5.081,0,0,1,3.285-3.643,4.273,4.273,0,0,1,3.051.1,4.8,4.8,0,0,1,2.693,3.141l14.151,49.463A5.347,5.347,0,0,1,3470.091,1608.543Z" transform="translate(-3395.026 -1550.473)" fill="#4965ae"/>
      </g>
    </g>
  </g>
</svg>
