<svg id="Group_351" data-name="Group 351" xmlns="http://www.w3.org/2000/svg" width="166.379" height="144.74" viewBox="0 0 166.379 144.74">
  <g id="Group_319" data-name="Group 319">
    <g id="Group_317" data-name="Group 317" transform="translate(3.449 3.026)">
      <rect id="Rectangle_35" data-name="Rectangle 35" width="159.482" height="112.841" rx="4.184" fill="#002577"/>
    </g>
    <g id="Group_318" data-name="Group 318">
      <path id="Path_745" data-name="Path 745" d="M3300.116,1644.737h-137.36a14.528,14.528,0,0,1-14.51-14.51v-89.871a14.528,14.528,0,0,1,14.51-14.511h137.36a14.526,14.526,0,0,1,14.509,14.511v89.871A14.526,14.526,0,0,1,3300.116,1644.737Zm-137.36-114.892a10.523,10.523,0,0,0-10.51,10.51v89.871a10.523,10.523,0,0,0,10.51,10.51h137.36a10.521,10.521,0,0,0,10.508-10.51v-89.871a10.521,10.521,0,0,0-10.508-10.51Z" transform="translate(-3148.246 -1525.845)" fill="#00173f"/>
    </g>
  </g>
  <g id="Group_321" data-name="Group 321" transform="translate(51.19 116.61)">
    <g id="Group_320" data-name="Group 320">
      <path id="Path_746" data-name="Path 746" d="M3237.546,1602.491v8.21h-64.4v-8.21h15.66v-19.92h34.209v19.92Z" transform="translate(-3173.148 -1582.572)" fill="#00173f"/>
    </g>
  </g>
  <g id="Group_330" data-name="Group 330" transform="translate(68.011 26.962)">
    <g id="Group_323" data-name="Group 323">
      <g id="Group_322" data-name="Group 322">
        <path id="Path_747" data-name="Path 747" d="M3181.344,1570.472c0-5.5.013-11-.014-16.5a1.516,1.516,0,0,1,.949-1.583q13.219-6.565,26.4-13.2a1.754,1.754,0,0,1,1.762.014q13.23,6.648,26.486,13.247a1.324,1.324,0,0,1,.837,1.363q-.025,16.675,0,33.351a1.279,1.279,0,0,1-.8,1.313q-13.327,6.639-26.635,13.319a1.561,1.561,0,0,1-1.57,0q-13.3-6.676-26.612-13.311a1.281,1.281,0,0,1-.818-1.305C3181.353,1581.611,3181.344,1576.043,3181.344,1570.472Zm1.6-15.839a3.16,3.16,0,0,0-.054.329q0,15.831-.01,31.661a.718.718,0,0,0,.5.729q12.476,6.226,24.949,12.463a2.8,2.8,0,0,0,.452.136c.01-.232.025-.395.025-.559q0-15.612.016-31.225a.911.911,0,0,0-.646-.929q-10.018-4.992-20.026-10Zm53.274.027c-.261.109-.432.169-.592.249q-12.393,6.192-24.787,12.379a.823.823,0,0,0-.508.874c.013,2.008-.008,4.017-.006,6.025q0,12.491.01,24.984v.861c.368-.175.617-.288.863-.409q12.13-6.068,24.271-12.126a1.141,1.141,0,0,0,.765-1.2q-.038-15.442-.017-30.88Zm-52.3-1.312c.2.125.279.181.362.222q12.423,6.214,24.857,12.406a1.228,1.228,0,0,0,.951-.048q12.245-6.09,24.471-12.22c.191-.1.374-.216.617-.356-.21-.123-.325-.2-.448-.259q-12.346-6.177-24.7-12.328a1.3,1.3,0,0,0-1.007.052q-9.524,4.72-19.027,9.485C3187.987,1551.3,3186,1552.3,3183.91,1553.348Z" transform="translate(-3181.331 -1538.961)" fill="#fff"/>
      </g>
    </g>
    <g id="Group_325" data-name="Group 325" transform="translate(2.757 17.596)">
      <g id="Group_324" data-name="Group 324">
        <path id="Path_748" data-name="Path 748" d="M3206.177,1589.1c-2.549-1.272-4.972-2.481-7.394-3.692q-7.78-3.892-15.558-7.779c-.333-.166-.557-.308-.555-.759q.024-14.492.014-28.98c0-.092.017-.185.033-.368,1.347.668,2.656,1.313,3.961,1.965q9.417,4.708,18.837,9.408a.994.994,0,0,1,.689,1.036c-.045,1.869-.029,3.737-.029,5.608q0,11.4,0,22.805Z" transform="translate(-3182.672 -1547.521)" fill="#4765ae"/>
      </g>
    </g>
    <g id="Group_327" data-name="Group 327" transform="translate(30.167 17.605)">
      <g id="Group_326" data-name="Group 326">
        <path id="Path_749" data-name="Path 749" d="M3219.53,1547.525v.783q0,14.175.01,28.351a.951.951,0,0,1-.623,1q-11.177,5.556-22.337,11.154c-.144.072-.294.134-.53.242-.015-.292-.035-.532-.035-.773q0-13.262,0-26.528c0-.676.017-1.354-.008-2.031a.643.643,0,0,1,.415-.7q11.408-5.683,22.809-11.386C3219.292,1547.613,3219.355,1547.593,3219.53,1547.525Z" transform="translate(-3196.006 -1547.525)" fill="#4765ae"/>
      </g>
    </g>
    <g id="Group_329" data-name="Group 329" transform="translate(5.229 2.98)">
      <g id="Group_328" data-name="Group 328">
        <path id="Path_750" data-name="Path 750" d="M3183.875,1551.843c.267-.146.46-.261.66-.362q10.854-5.433,21.709-10.864a1.073,1.073,0,0,1,1.1-.09q11.036,5.55,22.09,11.061c.121.062.234.135.441.257-.937.473-1.8.911-2.658,1.342q-9.929,4.964-19.866,9.914a1.139,1.139,0,0,1-.882.045q-11.153-5.541-22.285-11.127C3184.109,1551.98,3184.035,1551.933,3183.875,1551.843Z" transform="translate(-3183.875 -1540.41)" fill="#4965ae"/>
      </g>
    </g>
  </g>
  <g id="Group_342" data-name="Group 342" transform="translate(106.087 54.052)">
    <g id="Group_332" data-name="Group 332">
      <g id="Group_331" data-name="Group 331">
        <path id="Path_751" data-name="Path 751" d="M3199.862,1572.645c0-3.579.008-7.157-.008-10.737a.985.985,0,0,1,.617-1.03q8.6-4.274,17.183-8.588a1.138,1.138,0,0,1,1.147.008q8.61,4.326,17.237,8.621a.863.863,0,0,1,.544.886q-.018,10.85,0,21.7a.832.832,0,0,1-.52.855q-8.67,4.32-17.332,8.666a1.021,1.021,0,0,1-1.023,0q-8.653-4.344-17.317-8.662a.834.834,0,0,1-.533-.849C3199.868,1579.9,3199.864,1576.271,3199.862,1572.645Zm1.038-10.307a1.806,1.806,0,0,0-.033.214q0,10.3-.008,20.6a.468.468,0,0,0,.323.475q8.122,4.052,16.235,8.11a1.8,1.8,0,0,0,.3.09c.006-.152.015-.259.015-.364q0-10.16.012-20.322a.6.6,0,0,0-.421-.6q-6.519-3.247-13.031-6.508Zm34.668.019c-.171.07-.282.109-.387.16q-8.062,4.03-16.128,8.056a.536.536,0,0,0-.331.569c.009,1.307,0,2.613,0,3.92q0,8.128.006,16.258v.561c.241-.113.4-.187.561-.267q7.9-3.947,15.8-7.889a.743.743,0,0,0,.5-.781q-.023-10.046-.01-20.1Zm-34.038-.853c.134.08.183.117.236.144q8.085,4.043,16.174,8.073a.8.8,0,0,0,.621-.031q7.968-3.962,15.923-7.953c.125-.062.245-.14.4-.23-.137-.08-.212-.129-.292-.168q-8.035-4.021-16.077-8.023a.84.84,0,0,0-.656.035q-6.2,3.068-12.381,6.171C3204.185,1560.168,3202.89,1560.822,3201.531,1561.5Z" transform="translate(-3199.854 -1552.14)" fill="#fff"/>
      </g>
    </g>
    <g id="Group_335" data-name="Group 335" transform="translate(1.293 10.779)">
      <g id="Group_333" data-name="Group 333" transform="translate(0.5 0.672)">
        <path id="Path_752" data-name="Path 752" d="M3216.021,1584.766c-1.658-.828-3.235-1.614-4.81-2.4q-5.062-2.532-10.124-5.061c-.216-.107-.362-.2-.362-.493q.015-9.429.01-18.858c0-.062.011-.121.021-.241.876.434,1.729.855,2.578,1.279q6.13,3.065,12.26,6.124a.649.649,0,0,1,.448.674c-.029,1.215-.019,2.432-.019,3.648q0,7.419,0,14.84Z" transform="translate(-3200.726 -1557.71)" fill="#fff"/>
      </g>
      <g id="Group_334" data-name="Group 334">
        <path id="Path_753" data-name="Path 753" d="M3216.78,1585.919l-15.66-7.826a.984.984,0,0,1-.637-.939q.012-7.663.008-15.323v-3.538a1.447,1.447,0,0,1,.017-.189l.07-.721.66.224,5.946,2.967q4.444,2.22,8.889,4.436a1.141,1.141,0,0,1,.726,1.135c-.024.954-.022,1.908-.021,2.864Zm-15.3-8.767s.029.016.09.047l14.213,7.1v-15.294c0-.964,0-1.928.019-2.89,0-.123,0-.127-.169-.216q-4.449-2.211-8.891-4.436l-5.24-2.615-.006,2.979q0,7.662-.011,15.323Z" transform="translate(-3200.483 -1557.383)" fill="#00173f"/>
      </g>
    </g>
    <g id="Group_338" data-name="Group 338" transform="translate(19.129 10.721)">
      <g id="Group_336" data-name="Group 336" transform="translate(0.502 0.736)">
        <path id="Path_754" data-name="Path 754" d="M3224.71,1557.713v.51q0,9.226.008,18.449a.617.617,0,0,1-.4.652q-7.274,3.617-14.538,7.259c-.092.047-.189.088-.343.158-.01-.191-.022-.345-.022-.5q0-8.633,0-17.263c0-.442.012-.882,0-1.324a.418.418,0,0,1,.269-.452q7.426-3.7,14.844-7.41C3224.556,1557.77,3224.6,1557.756,3224.71,1557.713Z" transform="translate(-3209.403 -1557.713)" fill="#fff"/>
      </g>
      <g id="Group_337" data-name="Group 337">
        <path id="Path_755" data-name="Path 755" d="M3209.224,1585.881l-.043-.915c-.008-.123-.014-.237-.014-.352l0-17.644c0-.306.006-.615-.008-.921a.911.911,0,0,1,.549-.921q6.074-3.025,12.145-6.062l2.932-1.441.683-.271v4.936q0,7.379.008,14.76a1.109,1.109,0,0,1-.683,1.1q-5.92,2.945-11.832,5.906l-2.7,1.353c-.068.033-.138.066-.228.107Zm15.245-27-2.168,1.079q-6.071,3.034-12.145,6.062c.019.31.017.633.014.956l0,6.128v11.228l2.348-1.174q5.914-2.957,11.832-5.908a.362.362,0,0,0,.115-.072h0a.361.361,0,0,0,.015-.132q-.016-7.379-.009-14.76Z" transform="translate(-3209.159 -1557.355)" fill="#00173f"/>
      </g>
    </g>
    <g id="Group_341" data-name="Group 341" transform="translate(2.38 1.439)">
      <g id="Group_339" data-name="Group 339" transform="translate(1.022 0.5)">
        <path id="Path_756" data-name="Path 756" d="M3201.509,1560.522c.172-.095.3-.171.43-.234q7.064-3.537,14.126-7.069a.7.7,0,0,1,.717-.06q7.179,3.614,14.375,7.2c.079.039.153.088.286.167-.609.308-1.168.592-1.729.874q-6.459,3.231-12.928,6.45a.742.742,0,0,1-.573.031q-7.258-3.608-14.5-7.242C3201.661,1560.613,3201.614,1560.582,3201.509,1560.522Z" transform="translate(-3201.509 -1553.083)" fill="#fff"/>
      </g>
      <g id="Group_340" data-name="Group 340">
        <path id="Path_757" data-name="Path 757" d="M3216.968,1568.681a1.014,1.014,0,0,1-.452-.1q-6.469-3.213-12.928-6.453l-1.574-.787c-.042-.021-.079-.043-.134-.074l-.868-.5.938-.52c.107-.058.2-.109.292-.156l14.126-7.069a1.188,1.188,0,0,1,1.164-.06q5.481,2.76,10.975,5.5l3.4,1.7c.063.033.124.068.2.117l.9.532-4.2,2.113q-5.633,2.818-11.271,5.624A1.328,1.328,0,0,1,3216.968,1568.681Zm-13.849-7.906.917.46q6.459,3.232,12.926,6.453a.585.585,0,0,0,.127-.029q5.643-2.8,11.269-5.624l2.521-1.264-2.819-1.41q-5.491-2.744-10.979-5.5c-.064-.033-.072-.037-.266.06Z" transform="translate(-3201.011 -1552.839)" fill="#00173f"/>
      </g>
    </g>
  </g>
  <g id="Group_344" data-name="Group 344" transform="translate(16.371 16.005)">
    <g id="Group_343" data-name="Group 343">
      <rect id="Rectangle_36" data-name="Rectangle 36" width="30.978" height="9.617" transform="translate(0.392 0.391)" fill="#4765ae"/>
      <path id="Path_758" data-name="Path 758" d="M3187.971,1544.03h-31.762v-10.4h31.762Zm-30.978-.783h30.195v-8.833h-30.195Z" transform="translate(-3156.209 -1533.631)" fill="#00173f"/>
    </g>
  </g>
  <g id="Group_346" data-name="Group 346" transform="translate(16.763 33.961)">
    <g id="Group_345" data-name="Group 345">
      <rect id="Rectangle_37" data-name="Rectangle 37" width="43.318" height="1.702" fill="#fff"/>
    </g>
  </g>
  <g id="Group_348" data-name="Group 348" transform="translate(16.763 39.068)">
    <g id="Group_347" data-name="Group 347">
      <rect id="Rectangle_38" data-name="Rectangle 38" width="43.318" height="1.702" fill="#fff"/>
    </g>
  </g>
  <g id="Group_350" data-name="Group 350" transform="translate(52.512 48.344)">
    <g id="Group_349" data-name="Group 349">
      <path id="Path_759" data-name="Path 759" d="M3266.661,1604.641h-92.87v-55.279h.5v54.779h92.37Z" transform="translate(-3173.791 -1549.363)" fill="#fff"/>
    </g>
  </g>
</svg>
