<svg id="Group_425" data-name="Group 425" xmlns="http://www.w3.org/2000/svg" width="164.064" height="142.725" viewBox="0 0 164.064 142.725">
  <g id="Group_413" data-name="Group 413">
    <g id="Group_411" data-name="Group 411" transform="translate(3.751 3.23)">
      <rect id="Rectangle_41" data-name="Rectangle 41" width="156.563" height="110.776" rx="4.118" fill="#002577"/>
    </g>
    <g id="Group_412" data-name="Group 412">
      <path id="Path_782" data-name="Path 782" d="M3681.414,1644.06H3545.966a14.325,14.325,0,0,1-14.309-14.307v-88.621a14.325,14.325,0,0,1,14.309-14.307h135.448a14.324,14.324,0,0,1,14.307,14.307v88.621A14.324,14.324,0,0,1,3681.414,1644.06Zm-135.448-113.292a10.377,10.377,0,0,0-10.364,10.365v88.621a10.377,10.377,0,0,0,10.364,10.365h135.448a10.375,10.375,0,0,0,10.363-10.365v-88.621a10.375,10.375,0,0,0-10.363-10.365Z" transform="translate(-3531.656 -1526.825)" fill="#00173f"/>
    </g>
  </g>
  <g id="Group_415" data-name="Group 415" transform="translate(50.478 114.987)">
    <g id="Group_414" data-name="Group 414">
      <path id="Path_783" data-name="Path 783" d="M3619.715,1602.4v8.1h-63.5v-8.1h15.442v-19.642h33.733V1602.4Z" transform="translate(-3556.212 -1582.762)" fill="#00173f"/>
    </g>
  </g>
  <g id="Group_417" data-name="Group 417" transform="translate(60.208 35.558)">
    <g id="Group_416" data-name="Group 416">
      <path id="Path_784" data-name="Path 784" d="M3569.842,1549.815c-1.1-2.5.8-3.562,2.911-4.514a5.312,5.312,0,0,0,.987-.559,2.415,2.415,0,0,1,3.4.179,11.174,11.174,0,0,0,13.6.078,2.129,2.129,0,0,1,2.824-.134c1.02.689,2.083,1.32,3.166,1.9a2.015,2.015,0,0,1,1.087,2.344,11.505,11.505,0,0,0,6.985,12.391,1.773,1.773,0,0,1,1.233,1.838c-.043,1.422-.047,2.843-.058,4.265a1.784,1.784,0,0,1-1.392,1.866,11.535,11.535,0,0,0-7.371,12.122,1.955,1.955,0,0,1-1.121,2.325c-1.186.592-2.335,1.262-3.486,1.918a1.8,1.8,0,0,1-2.325-.218,11.5,11.5,0,0,0-14.408-.222,1.6,1.6,0,0,1-2.062.179c-1.289-.8-2.664-1.48-3.858-2.4a2.383,2.383,0,0,1-.8-1.856,11.7,11.7,0,0,0-6.936-12.591,1.824,1.824,0,0,1-1.281-1.949c.06-1.276.107-2.561.039-3.838a2.167,2.167,0,0,1,1.712-2.391A11.637,11.637,0,0,0,3569.842,1549.815Zm23.114,15.434a9.508,9.508,0,0,0-19.013-.312,9.508,9.508,0,1,0,19.013.312Z" transform="translate(-3560.946 -1544.123)" fill="#4965ae"/>
    </g>
  </g>
  <g id="Group_419" data-name="Group 419" transform="translate(104.416 25.545)">
    <g id="Group_418" data-name="Group 418">
      <path id="Path_785" data-name="Path 785" d="M3608.26,1569.926a11.919,11.919,0,0,1-1.63-1.161q-11.181-11.144-22.326-22.322a10.023,10.023,0,0,1-1.143-1.262,3.7,3.7,0,0,1,.4-4.814,3.78,3.78,0,0,1,4.823-.448,9.6,9.6,0,0,1,1.268,1.137q11.665,11.662,23.323,23.333c3.945,3.945,3.953,7.776.011,11.725q-11.708,11.72-23.44,23.416a6.555,6.555,0,0,1-2.448,1.593,3.571,3.571,0,0,1-4.056-1.638,3.663,3.663,0,0,1,.284-4.376,24.641,24.641,0,0,1,1.774-1.842q10.7-10.715,21.422-21.416a14.689,14.689,0,0,1,1.71-1.281Z" transform="translate(-3582.452 -1539.252)" fill="#fff"/>
    </g>
  </g>
  <g id="Group_421" data-name="Group 421" transform="translate(27.584 25.529)">
    <g id="Group_420" data-name="Group 420">
      <path id="Path_786" data-name="Path 786" d="M3552.655,1570.63a9.507,9.507,0,0,1,1.628,1.048q11.341,11.3,22.625,22.651a5.96,5.96,0,0,1,1.455,2.212,3.609,3.609,0,0,1-1.645,4.179,3.788,3.788,0,0,1-4.7-.617c-3.009-2.958-5.98-5.957-8.962-8.944q-7.644-7.651-15.284-15.3c-3.6-3.6-3.589-7.6.014-11.205q11.819-11.822,23.652-23.634a6.553,6.553,0,0,1,2.436-1.612,3.579,3.579,0,0,1,4.146,1.717,3.786,3.786,0,0,1-.611,4.59c-2.717,2.781-5.486,5.513-8.234,8.264q-7.592,7.6-15.186,15.2C3553.658,1569.507,3553.356,1569.863,3552.655,1570.63Z" transform="translate(-3545.075 -1539.244)" fill="#fff"/>
    </g>
  </g>
  <g id="Group_424" data-name="Group 424" transform="translate(22.078 100.258)">
    <g id="Group_422" data-name="Group 422" transform="translate(0.494 0.493)">
      <rect id="Rectangle_42" data-name="Rectangle 42" width="81.845" height="3.29" fill="#4965ae"/>
    </g>
    <g id="Group_423" data-name="Group 423">
      <path id="Path_787" data-name="Path 787" d="M3625.228,1579.873H3542.4V1575.6h82.832Zm-81.845-.987h80.858v-2.3h-80.858Z" transform="translate(-3542.396 -1575.597)" fill="#00173f"/>
    </g>
  </g>
</svg>
