<svg xmlns="http://www.w3.org/2000/svg" width="152.615" height="36.261" viewBox="0 0 152.615 36.261">
  <g id="Group_1000" data-name="Group 1000" transform="translate(-4350.2 -1719)">
    <g id="Group_998" data-name="Group 998" transform="translate(4393 1727)">
      <path id="Path_1" data-name="Path 1" d="M6528.989,643.692a1.145,1.145,0,0,1-.882.079,1.207,1.207,0,0,1-.662-.614L6520.42,628.6a1.092,1.092,0,0,1-.063-.882,1.16,1.16,0,0,1,.63-.63,1.146,1.146,0,0,1,.882-.079,1.094,1.094,0,0,1,.63.614l6.9,14.555a1.25,1.25,0,0,1,.157.882A.926.926,0,0,1,6528.989,643.692Zm-3.5,8.034a1.552,1.552,0,0,1-.567-.126,1.01,1.01,0,0,1-.6-1.512l10.176-22.431a1.033,1.033,0,0,1,1.512-.567.978.978,0,0,1,.6,1.481L6526.405,651A1,1,0,0,1,6525.492,651.726Z" transform="translate(-6520.291 -626.806)" fill="#83899b" stroke="#83899b" stroke-miterlimit="10" stroke-width="2"/>
      <path id="Path_2" data-name="Path 2" d="M6640.534,643.77a8.278,8.278,0,0,1-7.388-4.285,8.957,8.957,0,0,1-1.118-4.474,8.807,8.807,0,0,1,1.15-4.505,8.466,8.466,0,0,1,3.134-3.135,9.246,9.246,0,0,1,8.931,0,8.513,8.513,0,0,1,3.119,3.135,9.049,9.049,0,0,1,1.182,4.505l-.977.756a7.953,7.953,0,0,1-1.055,4.08,7.818,7.818,0,0,1-2.867,2.867A8.014,8.014,0,0,1,6640.534,643.77Zm.252-2.205a6.267,6.267,0,0,0,3.26-.851,6.167,6.167,0,0,0,2.268-2.347,7.19,7.19,0,0,0,0-6.726,6.325,6.325,0,0,0-2.268-2.347,6.538,6.538,0,0,0-6.5,0,6.4,6.4,0,0,0-2.3,2.347,7.074,7.074,0,0,0,0,6.726,6.233,6.233,0,0,0,5.544,3.2Zm7.529,2.048a1.224,1.224,0,0,1-.882-.331,1.141,1.141,0,0,1-.346-.866v-5.387l.6-2.489,1.858.473v7.4a1.144,1.144,0,0,1-.346.866A1.227,1.227,0,0,1,6648.315,643.612Z" transform="translate(-6614.068 -626.19)" fill="#83899b" stroke="#83899b" stroke-miterlimit="10" stroke-width="2"/>
      <path id="Path_3" data-name="Path 3" d="M6773.223,643.77a8.275,8.275,0,0,1-7.387-4.285,8.947,8.947,0,0,1-1.119-4.474,8.817,8.817,0,0,1,1.15-4.505,8.46,8.46,0,0,1,3.134-3.135,9.245,9.245,0,0,1,8.931,0,8.51,8.51,0,0,1,3.119,3.135,9.044,9.044,0,0,1,1.181,4.505l-.976.756a7.958,7.958,0,0,1-1.056,4.08,7.82,7.82,0,0,1-2.867,2.867A8.018,8.018,0,0,1,6773.223,643.77Zm.252-2.205a6.269,6.269,0,0,0,3.261-.851,6.174,6.174,0,0,0,2.268-2.347,7.19,7.19,0,0,0,0-6.726,6.332,6.332,0,0,0-2.268-2.347,6.541,6.541,0,0,0-6.506,0,6.412,6.412,0,0,0-2.3,2.347,7.077,7.077,0,0,0,0,6.726,6.233,6.233,0,0,0,5.545,3.2Zm7.53,2.048a1.227,1.227,0,0,1-.883-.331,1.141,1.141,0,0,1-.346-.866v-5.387l.6-2.489,1.858.473v7.4a1.144,1.144,0,0,1-.346.866A1.224,1.224,0,0,1,6781.005,643.612Z" transform="translate(-6725.43 -626.19)" fill="#83899b" stroke="#83899b" stroke-miterlimit="10" stroke-width="2"/>
      <path id="Path_4" data-name="Path 4" d="M6904.288,643.448a1.094,1.094,0,0,1-1.2-1.2V627.412a1.2,1.2,0,1,1,2.395,0V642.25a1.094,1.094,0,0,1-1.2,1.2Zm-.189-10.617a7.357,7.357,0,0,1,1.024-3.5,6.88,6.88,0,0,1,2.426-2.426,6.423,6.423,0,0,1,3.323-.882,4.949,4.949,0,0,1,2.237.409.99.99,0,0,1,.6,1.2.938.938,0,0,1-.426.63,1.319,1.319,0,0,1-.725.126q-.425-.031-.961-.063a7.01,7.01,0,0,0-3.135.362,4.755,4.755,0,0,0-2.174,1.591,4.135,4.135,0,0,0-.8,2.552Z" transform="translate(-6841.562 -626.026)" fill="#83899b" stroke="#83899b" stroke-miterlimit="10" stroke-width="2"/>
      <path id="Path_5" data-name="Path 5" d="M6988.094,643.77a8.916,8.916,0,0,1-4.506-1.134,8.234,8.234,0,0,1-3.118-3.119,9.572,9.572,0,0,1,0-9.042,8.233,8.233,0,0,1,3.118-3.119,9.485,9.485,0,0,1,9,0,8.275,8.275,0,0,1,3.1,3.119,9.213,9.213,0,0,1,1.166,4.536,8.821,8.821,0,0,1-1.15,4.505,8.394,8.394,0,0,1-3.118,3.119A8.834,8.834,0,0,1,6988.094,643.77Zm0-2.205a6.353,6.353,0,0,0,3.276-.851,6.053,6.053,0,0,0,2.268-2.331,6.848,6.848,0,0,0,.819-3.371,6.939,6.939,0,0,0-.819-3.387,6.027,6.027,0,0,0-2.268-2.347,6.737,6.737,0,0,0-6.554,0,6.128,6.128,0,0,0-2.283,2.347,6.832,6.832,0,0,0-.835,3.387,6.742,6.742,0,0,0,.835,3.371,6.155,6.155,0,0,0,2.283,2.331A6.352,6.352,0,0,0,6988.094,641.564Z" transform="translate(-6905.551 -626.19)" fill="#83899b" stroke="#83899b" stroke-miterlimit="10" stroke-width="2"/>
      <path id="Path_6" data-name="Path 6" d="M7118.9,643.77a11.225,11.225,0,0,1-3.686-.63,6.923,6.923,0,0,1-2.961-1.89,1.01,1.01,0,0,1-.284-.851,1.277,1.277,0,0,1,.473-.819,1.255,1.255,0,0,1,1.7.158,4.83,4.83,0,0,0,2,1.355,7.711,7.711,0,0,0,2.757.473,5.564,5.564,0,0,0,3.371-.8,2.478,2.478,0,0,0,1.071-1.937,2.209,2.209,0,0,0-1.071-1.875,9.121,9.121,0,0,0-3.528-1.15,9.488,9.488,0,0,1-4.663-1.764,3.815,3.815,0,0,1-1.481-2.993,4.173,4.173,0,0,1,.851-2.678,5.155,5.155,0,0,1,2.269-1.607,8.765,8.765,0,0,1,3.119-.536,8.429,8.429,0,0,1,3.639.725,6.662,6.662,0,0,1,2.473,1.953,1.109,1.109,0,0,1,.252.851,1.023,1.023,0,0,1-.5.725,1.265,1.265,0,0,1-.866.142,1.409,1.409,0,0,1-.835-.457,4.8,4.8,0,0,0-1.827-1.339,6.287,6.287,0,0,0-2.395-.425,4.846,4.846,0,0,0-2.772.709,2.1,2.1,0,0,0-1.039,1.78,2.064,2.064,0,0,0,.394,1.26,3.189,3.189,0,0,0,1.354.945,12.126,12.126,0,0,0,2.694.693,11.971,11.971,0,0,1,3.733,1.118,4.861,4.861,0,0,1,1.953,1.733,4.19,4.19,0,0,1,.583,2.158,4.128,4.128,0,0,1-.866,2.6,5.7,5.7,0,0,1-2.395,1.748A9.149,9.149,0,0,1,7118.9,643.77Z" transform="translate(-7016.861 -626.19)" fill="#83899b" stroke="#83899b" stroke-miterlimit="10" stroke-width="2"/>
    </g>
    <g id="Group_999" data-name="Group 999" transform="translate(4350.2 1719)">
      <path id="Path_7" data-name="Path 7" d="M6717.184,19.535a21.509,21.509,0,0,1-2.759,1.8c-.009.006-.022,0-.016,0-.8-1.82-1.6-3.631-2.406-5.453.045-.03.1-.065.15-.1.477-.287.954-.571,1.429-.863a3.555,3.555,0,0,0,1.448-4.166,2.61,2.61,0,0,0-3.545-1.6,3.524,3.524,0,0,0-1.736,4.588c1.615,3.677,3.254,7.338,4.844,11.028a10.075,10.075,0,0,1-.286,8.67c-2.348,4.881-7.76,6.866-11.9,4.416-5.4-3.2-5.449-11.938-.082-16.068l2.321,5.7a2.706,2.706,0,0,0-.722,3.179,2.84,2.84,0,0,0,3.552,1.82,3.5,3.5,0,0,0,1.989-4.66q-1.137-2.592-2.282-5.178c-.032-.068-.062-.135-.092-.2-.614-.105-1.537-.311-1.977-.387a15.472,15.472,0,0,1-3.492-1.016l-.033-.014-.238-.105-.026-.013h0a12.336,12.336,0,0,1-6.561-6.846c-3.22-8.355-2.951-7.956-2.974-8.019l5.181-1.828c.022.061-.239-.325,2.919,7.871a5.569,5.569,0,0,0,4.391,3.819,10.174,10.174,0,0,1,.66-7.886c2.315-4.751,7.673-6.74,11.747-4.393C6722.057,6.725,6722.318,15.191,6717.184,19.535Z" transform="translate(-6691.793 -2.649)" fill="#83899b"/>
    </g>
  </g>
</svg>
